<?xml version="1.0" encoding="utf-8"?>
<!-- Generator: Adobe Illustrator 25.2.1, SVG Export Plug-In . SVG Version: 6.00 Build 0)  -->
<svg version="1.1" id="Capa_1" xmlns="http://www.w3.org/2000/svg" xmlns:xlink="http://www.w3.org/1999/xlink" x="0px" y="0px"
	 viewBox="0 0 500 500" style="enable-background:new 0 0 500 500;" xml:space="preserve">
<style type="text/css">
	.st0{fill-rule:evenodd;clip-rule:evenodd;fill:#364548;}
	.st1{fill-rule:evenodd;clip-rule:evenodd;fill:#22A0C8;}
	.st2{fill-rule:evenodd;clip-rule:evenodd;fill:#37B1D9;}
	.st3{fill-rule:evenodd;clip-rule:evenodd;fill:#1B81A5;}
	.st4{fill-rule:evenodd;clip-rule:evenodd;fill:#1D91B4;}
	.st5{fill-rule:evenodd;clip-rule:evenodd;fill:#23A3C2;}
	.st6{fill-rule:evenodd;clip-rule:evenodd;fill:#34BBDE;}
	.st7{fill-rule:evenodd;clip-rule:evenodd;fill:#D3ECEC;}
	.st8{fill-rule:evenodd;clip-rule:evenodd;fill:#BDD9D7;}
</style>
<g>
	<path class="st0" d="M73.9,378.8v-32.4c0-4.3,2.7-7.7,7.1-7.7h1.2c4.4,0,7,3.4,7,7.7v68.2c0,16.6-8.2,29.8-22.5,38.3
		c-6.6,3.9-14,5.9-21.7,5.9h-3c-16.6,0-29.8-8.2-38.3-22.5c-3.9-6.6-5.9-14-5.9-21.7v-3c0-16.6,8.2-29.8,22.5-38.3
		c6.6-3.9,14-5.9,21.7-5.9h3C56.3,367.4,65.8,371.7,73.9,378.8L73.9,378.8z M13.2,413.1c0,12,5.8,21,16.3,26.8
		c4.3,2.3,8.9,3.6,13.7,3.6c11.8,0,20.5-5.6,26.6-15.5c2.8-4.6,4.1-9.7,4.1-15.1c0-10.4-4.9-18.5-13.3-24.6
		c-5.1-3.7-10.8-5.5-17.1-5.5c-12.8,0-22.1,6.5-27.6,18C14,404.6,13.2,408.8,13.2,413.1L13.2,413.1z M142.4,367.4h2.1
		c17.8,0,31.3,8.6,39.8,24.1c3.4,6.2,5.3,13,5.3,20.1v3c0,16.6-8.2,29.9-22.5,38.3c-6.6,3.9-14,5.9-21.7,5.9h-3
		c-16.6,0-29.8-8.2-38.3-22.5c-3.9-6.6-5.9-14-5.9-21.7v-3c0-16.6,8.2-29.8,22.5-38.3C127.4,369.3,134.7,367.4,142.4,367.4
		L142.4,367.4z M113.6,413.1c0,11.7,5.7,20.2,15.6,26.3c4.6,2.8,9.7,4.1,15.1,4.1c11.5,0,20-5.8,26-15.6c2.8-4.6,4.1-9.7,4.1-15.1
		c0-10.8-5.2-19.1-14.1-25.1c-4.9-3.3-10.3-4.9-16.2-4.9c-12.8,0-22.1,6.5-27.6,18C114.4,404.6,113.6,408.8,113.6,413.1L113.6,413.1
		z M253.4,383.9c-2.3-1.1-6.6-1.4-9.1-1.5c-12.8-0.5-22.1,6.7-27.5,18c-1.9,3.9-2.7,8-2.7,12.3c0,13.1,6.9,22.3,18.6,27.9
		c4.3,2,9.8,2.4,14.5,2.4c4.1,0,9.9-2.5,13.6-4.3l0.6-0.3h2.8l0.3,0.1c3.5,0.7,6.1,2.9,6.1,6.7v1.5c0,9.3-17.1,11.5-23.6,11.9
		c-23,1.6-40.2-11-46.7-32.9c-1.1-3.8-1.7-7.6-1.7-11.5v-3c0-16.6,8.3-29.8,22.5-38.3c6.6-3.9,14-5.9,21.7-5.9h3
		c8.2,0,15.7,2.3,22.4,6.9l0.6,0.4l0.4,0.6c0.7,1.2,1.4,2.6,1.4,4v1.5c0,3.9-2.9,6-6.5,6.7l-0.3,0.1h-0.9
		C260.6,387.3,255.4,384.9,253.4,383.9L253.4,383.9z M303.1,394.3c6-6,11.9-11.9,18-17.8c1.7-1.6,8.1-8.6,10.6-8.6h2.7l0.3,0.1
		c3.5,0.7,6.1,2.9,6.1,6.7v1.5c0,2.6-3,5.5-4.7,7.3c-3.5,3.7-7.2,7.3-10.8,11l-18.5,18.8c8,8,15.9,16,23.9,24
		c2.2,2.2,4.4,4.5,6.5,6.7c0.8,0.8,1.9,1.8,2.5,2.9c0.7,1,1.1,2.2,1.1,3.5v1.6l-0.1,0.4c-0.9,3.5-3.1,6.3-7,6.3h-1.2
		c-2.5,0-5.4-2.9-7.1-4.5c-3.6-3.4-7-6.9-10.5-10.4l-11.8-11.6v18.5c0,4.3-2.7,7.7-7.1,7.7h-1.2c-4.4,0-7.1-3.4-7.1-7.7V346.7
		c0-4.3,2.7-7.7,7.1-7.7h1.2c4.4,0,7.1,3.4,7.1,7.7V394.3L303.1,394.3z M494.2,368h1.5c4.6,0,7.7,3.1,7.7,7.7c0,6.3-6.1,8-11.3,8
		c-6.9,0-13.5,4.2-18.2,8.8c-5.9,5.8-8.5,13.3-8.5,21.5v37.1c0,4.3-2.7,7.7-7.1,7.7h-1.2c-4.4,0-7.1-3.4-7.1-7.7v-39.2
		c0-15.1,7.3-27.4,19.6-36C476.9,370.7,485.3,368,494.2,368L494.2,368z M385.2,441.5c5.6,1.9,11.9,1.7,17.7,0.7
		c2.9-1.2,10.4-4.5,13.2-4l0.4,0.1l0.4,0.2c1.7,0.8,3.3,2,4.1,3.7c2,4,1,8-2.9,10.3l-1.3,0.8c-14.5,8.4-30,7.2-44.5-0.6
		c-6.9-3.7-12.2-9.3-16.1-16.1l-0.9-1.6c-9.3-16.2-8.1-33.2,2.5-48.6c3.6-5.3,8.4-9.4,13.9-12.6l2.1-1.2c13.7-7.9,28.4-7.4,42.4-0.4
		c7.6,3.7,13.7,9.3,17.9,16.6l0.8,1.3c3.1,5.3-0.9,9.9-5,13.1c-4.8,3.7-9.6,8.1-14.1,12C405.6,423.9,395.4,432.7,385.2,441.5
		L385.2,441.5z M372.1,432.3c11.4-9.8,22.8-19.5,34.1-29.3c3.9-3.3,8.1-6.8,12-10.3c-3.1-3.9-8.2-6.7-12.6-8.4
		c-8.8-3.4-17.6-2.2-25.7,2.4c-10.6,6.1-15.1,15.9-14.7,28c0.2,4.8,1.4,9.4,4,13.5C370,429.6,371,431,372.1,432.3z M289.3,125h45.2
		v46.3h22.9c10.6,0,21.4-1.9,31.4-5.3c4.9-1.7,10.4-4,15.3-6.9c-6.4-8.3-9.6-18.9-10.6-29.2c-1.3-14.1,1.5-32.5,11.1-43.5l4.8-5.5
		l5.7,4.6c14.3,11.5,26.3,27.5,28.4,45.7c17.2-5.1,37.4-3.9,52.5,4.9l6.2,3.6l-3.3,6.4c-12.8,25-39.6,32.7-65.8,31.4
		C394,274.9,308.7,321.1,205.3,321.1c-53.4,0-102.4-20-130.3-67.4l-0.5-0.8l-4.1-8.3C61,223.8,57.8,201,60,178.1l0.6-6.8h38.7V125
		h45.2V79.8H235V34.6h54.3V125"/>
	<path class="st1" d="M435.9,142.2c3-23.6-14.6-42.1-25.6-50.9c-12.6,14.6-14.6,52.8,5.2,68.9c-11,9.8-34.3,18.7-58.1,18.7h-290
		c-2.3,24.9,2,47.8,12,67.4l3.3,6c2.1,3.5,4.4,7,6.8,10.3c11.9,0.8,22.9,1,33,0.8h0c19.8-0.4,35.9-2.8,48.1-7
		c1.8-0.6,3.8,0.5,4.4,2.3c0.5,1.8-0.4,3.6-2.1,4.3c-1.6,0.6-3.3,1.1-5.1,1.6h0c-9.6,2.7-19.9,4.6-33.3,5.4c0.8,0-0.8,0.1-0.8,0.1
		c-0.5,0-1,0.1-1.5,0.1c-5.2,0.3-10.9,0.4-16.7,0.4c-6.3,0-12.6-0.1-19.5-0.5l-0.2,0.1c24.2,27.2,61.9,43.4,109.3,43.4
		c100.2,0,185.2-44.4,222.9-144.2c26.7,2.7,52.4-4.1,64-26.9C473.6,131.8,449.7,135.2,435.9,142.2"/>
	<path class="st2" d="M435.9,142.2c3-23.6-14.6-42.1-25.6-50.9c-12.6,14.6-14.6,52.8,5.2,68.9c-11,9.8-34.3,18.7-58.1,18.7H84.6
		c-1.2,38.1,12.9,67,38,84.5h0c19.8-0.4,35.9-2.8,48.1-7c1.8-0.6,3.8,0.5,4.4,2.3c0.5,1.8-0.4,3.6-2.1,4.3c-1.6,0.6-3.3,1.1-5.1,1.6
		h0c-9.6,2.7-20.8,4.8-34.1,5.7c0,0-0.3-0.3-0.3-0.3c34.1,17.5,83.6,17.4,140.3-4.3c63.6-24.4,122.7-71,164-124.2
		C437.1,141.6,436.5,141.9,435.9,142.2"/>
	<path class="st3" d="M68,209c1.8,13.3,5.7,25.8,11.5,37.2l3.3,6c2.1,3.5,4.4,7,6.8,10.3c11.9,0.8,22.9,1,33,0.8
		c19.8-0.4,35.9-2.8,48.1-7c1.8-0.6,3.8,0.5,4.4,2.3c0.5,1.8-0.4,3.6-2.1,4.3c-1.6,0.6-3.3,1.1-5.1,1.6h0
		c-9.6,2.7-20.8,4.7-34.1,5.5c-0.5,0-1.3,0-1.7,0.1c-5.2,0.3-10.8,0.5-16.6,0.5c-6.3,0-12.8-0.1-19.7-0.5
		c24.2,27.2,62.2,43.5,109.5,43.5c85.8,0,160.4-32.6,203.8-104.5H68"/>
	<path class="st4" d="M87.3,209c5.1,23.4,17.5,41.7,35.3,54.3c19.8-0.4,35.9-2.8,48.1-7c1.8-0.6,3.8,0.5,4.4,2.3
		c0.5,1.8-0.4,3.6-2.1,4.3c-1.6,0.6-3.3,1.1-5.1,1.6h0c-9.6,2.7-21,4.7-34.3,5.5c34.1,17.5,83.4,17.2,140.1-4.5
		c34.3-13.2,67.3-32.8,96.9-56.4H87.3"/>
	<path class="st5" d="M106.8,132.6H146v39.2h-39.2V132.6z M110.1,135.8h3.1v32.7h-3.1V135.8z M115.9,135.8h3.2v32.7h-3.2
		L115.9,135.8L115.9,135.8z M121.9,135.8h3.2v32.7h-3.2V135.8z M127.8,135.8h3.2v32.7h-3.2V135.8z M133.7,135.8h3.2v32.7h-3.2
		L133.7,135.8L133.7,135.8z M139.7,135.8h3.1v32.7h-3.1V135.8z M152.1,87.3h39.2v39.2h-39.2L152.1,87.3L152.1,87.3z M155.3,90.6h3.1
		v32.7h-3.1V90.6z M161.2,90.6h3.2v32.7h-3.2L161.2,90.6L161.2,90.6z M167.1,90.6h3.2v32.7h-3.2V90.6z M173,90.6h3.2v32.7H173V90.6z
		 M179,90.6h3.2v32.7H179V90.6z M184.9,90.6h3.1v32.7h-3.1V90.6z"/>
	<path class="st6" d="M152.1,132.6h39.2v39.2h-39.2L152.1,132.6L152.1,132.6z M155.3,135.8h3.1v32.7h-3.1V135.8z M161.2,135.8h3.2
		v32.7h-3.2L161.2,135.8L161.2,135.8z M167.1,135.8h3.2v32.7h-3.2V135.8z M173,135.8h3.2v32.7H173V135.8z M179,135.8h3.2v32.7H179
		V135.8z M184.9,135.8h3.1v32.7h-3.1V135.8z"/>
	<path class="st5" d="M197.3,132.6h39.2v39.2h-39.2V132.6z M200.6,135.8h3.1v32.7h-3.1V135.8z M206.4,135.8h3.2v32.7h-3.2V135.8z
		 M212.3,135.8h3.2v32.7h-3.2V135.8z M218.3,135.8h3.2v32.7h-3.2V135.8z M224.2,135.8h3.2v32.7h-3.2V135.8z M230.2,135.8h3.1v32.7
		h-3.1V135.8z"/>
	<path class="st6" d="M197.3,87.3h39.2v39.2h-39.2V87.3z M200.6,90.6h3.1v32.7h-3.1V90.6z M206.4,90.6h3.2v32.7h-3.2V90.6z
		 M212.3,90.6h3.2v32.7h-3.2V90.6z M218.3,90.6h3.2v32.7h-3.2V90.6z M224.2,90.6h3.2v32.7h-3.2V90.6z M230.2,90.6h3.1v32.7h-3.1
		V90.6z M242.6,132.6h39.2v39.2h-39.2V132.6z M245.8,135.8h3.1v32.7h-3.1V135.8z M251.6,135.8h3.2v32.7h-3.2V135.8z M257.6,135.8
		h3.2v32.7h-3.2V135.8z M263.5,135.8h3.2v32.7h-3.2V135.8z M269.5,135.8h3.2v32.7h-3.2V135.8z M275.4,135.8h3.1v32.7h-3.1V135.8z"/>
	<path class="st5" d="M242.6,87.3h39.2v39.2h-39.2V87.3z M245.8,90.6h3.1v32.7h-3.1V90.6z M251.6,90.6h3.2v32.7h-3.2V90.6z
		 M257.6,90.6h3.2v32.7h-3.2V90.6z M263.5,90.6h3.2v32.7h-3.2V90.6z M269.5,90.6h3.2v32.7h-3.2V90.6z M275.4,90.6h3.1v32.7h-3.1
		V90.6z"/>
	<path class="st6" d="M242.6,42.1h39.2v39.2h-39.2V42.1z M245.8,45.4h3.1V78h-3.1V45.4L245.8,45.4z M251.6,45.4h3.2V78h-3.2V45.4
		L251.6,45.4z M257.6,45.4h3.2V78h-3.2V45.4L257.6,45.4z M263.5,45.4h3.2V78h-3.2V45.4L263.5,45.4z M269.5,45.4h3.2V78h-3.2V45.4
		L269.5,45.4z M275.4,45.4h3.1V78h-3.1V45.4L275.4,45.4z"/>
	<path class="st5" d="M287.8,132.6H327v39.2h-39.2V132.6z M291.1,135.8h3.1v32.7h-3.1L291.1,135.8L291.1,135.8z M296.9,135.8h3.2
		v32.7h-3.2L296.9,135.8L296.9,135.8z M302.8,135.8h3.2v32.7h-3.2V135.8z M308.8,135.8h3.2v32.7h-3.2V135.8z M314.7,135.8h3.2v32.7
		h-3.2V135.8z M320.7,135.8h3.1v32.7h-3.1V135.8z"/>
	<path class="st7" d="M188.8,235.4c6-0.1,10.9,4.7,11,10.7c0.1,6-4.7,10.9-10.7,11c-0.1,0-0.2,0-0.3,0c-6-0.1-10.8-5-10.7-11
		C178.2,240.2,183,235.4,188.8,235.4"/>
	<path class="st0" d="M188.8,238.4c1,0,1.9,0.2,2.8,0.5c-1.5,0.9-2,2.8-1.1,4.3c0.6,1,1.6,1.6,2.7,1.6c1.2,0,2.2-0.7,2.8-1.6
		c1.6,4-0.2,8.5-4.2,10.1c-4,1.6-8.5-0.2-10.1-4.2c-1.6-4,0.2-8.5,4.2-10.1C186.8,238.6,187.8,238.4,188.8,238.4 M-2.5,213h503.2
		c-11-2.8-34.7-6.5-30.8-20.9c-19.9,23.1-68,16.2-80.1,4.8c-13.5,19.6-92.1,12.1-97.6-3.1c-16.9,19.9-69.4,19.9-86.3,0
		c-5.5,15.3-84.1,22.7-97.6,3.1c-12.1,11.4-60.2,18.2-80.1-4.8C32.2,206.4,8.4,210.2-2.5,213"/>
	<path class="st8" d="M217.6,313.3c-26.8-12.7-41.5-30-49.7-48.9c-10,2.8-21.9,4.7-35.8,5.4c-5.2,0.3-10.7,0.4-16.5,0.4
		c-6.7,0-13.7-0.2-21.1-0.6c24.6,24.6,54.8,43.5,110.8,43.8C209.4,313.6,213.5,313.5,217.6,313.3"/>
	<path class="st7" d="M177.9,281.9c-3.7-5-7.3-11.4-9.9-17.4c-10,2.8-21.9,4.7-35.8,5.4C141.6,275.1,155.3,279.9,177.9,281.9"/>
</g>
</svg>
