<?xml version="1.0" encoding="utf-8"?>
<!-- Generator: Adobe Illustrator 25.2.1, SVG Export Plug-In . SVG Version: 6.00 Build 0)  -->
<svg version="1.1" id="Capa_1" xmlns="http://www.w3.org/2000/svg" xmlns:xlink="http://www.w3.org/1999/xlink" x="0px" y="0px"
	 viewBox="0 0 500 500" style="enable-background:new 0 0 500 500;" xml:space="preserve">
<style type="text/css">
	.st0{fill-rule:evenodd;clip-rule:evenodd;fill:#364548;}
	.st1{fill-rule:evenodd;clip-rule:evenodd;fill:#22A0C8;}
	.st2{fill-rule:evenodd;clip-rule:evenodd;fill:#37B1D9;}
	.st3{fill-rule:evenodd;clip-rule:evenodd;fill:#1B81A5;}
	.st4{fill-rule:evenodd;clip-rule:evenodd;fill:#1D91B4;}
	.st5{fill-rule:evenodd;clip-rule:evenodd;fill:#23A3C2;}
	.st6{fill-rule:evenodd;clip-rule:evenodd;fill:#34BBDE;}
	.st7{fill-rule:evenodd;clip-rule:evenodd;fill:#D3ECEC;}
	.st8{fill-rule:evenodd;clip-rule:evenodd;fill:#BDD9D7;}
</style>
<g>
	<path class="st0" d="M293.6,231.3v-15.5c0-2.1,1.3-3.7,3.4-3.7h0.6c2.1,0,3.3,1.6,3.3,3.7v32.6c0,7.9-3.9,14.2-10.7,18.3
		c-3.2,1.9-6.7,2.8-10.4,2.8h-1.4c-7.9,0-14.2-3.9-18.3-10.7c-1.9-3.2-2.8-6.7-2.8-10.4V247c0-7.9,3.9-14.2,10.7-18.3
		c3.2-1.9,6.7-2.8,10.4-2.8h1.4C285.2,225.9,289.7,227.9,293.6,231.3L293.6,231.3z M264.6,247.7c0,5.7,2.8,10,7.8,12.8
		c2.1,1.1,4.2,1.7,6.5,1.7c5.6,0,9.8-2.7,12.7-7.4c1.3-2.2,2-4.6,2-7.2c0-5-2.3-8.8-6.3-11.7c-2.4-1.8-5.2-2.6-8.2-2.6
		c-6.1,0-10.5,3.1-13.2,8.6C265,243.6,264.6,245.6,264.6,247.7L264.6,247.7z M326.3,225.9h1c8.5,0,14.9,4.1,19,11.5
		c1.6,3,2.5,6.2,2.5,9.6v1.4c0,7.9-3.9,14.3-10.7,18.3c-3.2,1.9-6.7,2.8-10.4,2.8h-1.4c-7.9,0-14.2-3.9-18.3-10.7
		c-1.9-3.2-2.8-6.7-2.8-10.4V247c0-7.9,3.9-14.2,10.7-18.3C319.1,226.8,322.6,225.9,326.3,225.9L326.3,225.9z M312.6,247.7
		c0,5.6,2.7,9.6,7.4,12.6c2.2,1.3,4.6,2,7.2,2c5.5,0,9.5-2.8,12.4-7.4c1.3-2.2,2-4.6,2-7.2c0-5.2-2.5-9.1-6.7-12
		c-2.3-1.6-4.9-2.3-7.7-2.3c-6.1,0-10.5,3.1-13.2,8.6C312.9,243.6,312.6,245.6,312.6,247.7L312.6,247.7z M379.3,233.7
		c-1.1-0.5-3.2-0.7-4.3-0.7c-6.1-0.2-10.5,3.2-13.1,8.6c-0.9,1.9-1.3,3.8-1.3,5.9c0,6.3,3.3,10.6,8.9,13.3c2.1,1,4.7,1.1,6.9,1.1
		c2,0,4.7-1.2,6.5-2.1l0.3-0.1h1.3l0.1,0c1.7,0.3,2.9,1.4,2.9,3.2v0.7c0,4.4-8.2,5.5-11.3,5.7c-11,0.8-19.2-5.3-22.3-15.7
		c-0.5-1.8-0.8-3.6-0.8-5.5v-1.4c0-7.9,4-14.2,10.7-18.3c3.2-1.9,6.7-2.8,10.4-2.8h1.4c3.9,0,7.5,1.1,10.7,3.3l0.3,0.2l0.2,0.3
		c0.3,0.6,0.7,1.2,0.7,1.9v0.7c0,1.9-1.4,2.9-3.1,3.2l-0.1,0h-0.4C382.7,235.4,380.2,234.2,379.3,233.7L379.3,233.7z M403,238.7
		c2.9-2.9,5.7-5.7,8.6-8.5c0.8-0.8,3.9-4.1,5.1-4.1h1.3l0.1,0c1.7,0.3,2.9,1.4,2.9,3.2v0.7c0,1.2-1.4,2.6-2.2,3.5
		c-1.7,1.8-3.4,3.5-5.2,5.3l-8.8,9c3.8,3.8,7.6,7.6,11.4,11.5c1.1,1.1,2.1,2.1,3.1,3.2c0.4,0.4,0.9,0.9,1.2,1.4
		c0.3,0.5,0.5,1.1,0.5,1.7v0.8l0,0.2c-0.4,1.7-1.5,3-3.3,3h-0.6c-1.2,0-2.6-1.4-3.4-2.1c-1.7-1.6-3.3-3.3-5-5l-5.6-5.5v8.8
		c0,2.1-1.3,3.7-3.4,3.7h-0.6c-2.1,0-3.4-1.6-3.4-3.7V216c0-2.1,1.3-3.7,3.4-3.7h0.6c2.1,0,3.4,1.6,3.4,3.7V238.7L403,238.7z
		 M494.2,226.2h0.7c2.2,0,3.7,1.5,3.7,3.7c0,3-2.9,3.8-5.4,3.8c-3.3,0-6.4,2-8.7,4.2c-2.8,2.8-4.1,6.3-4.1,10.3v17.7
		c0,2.1-1.3,3.7-3.4,3.7h-0.6c-2.1,0-3.4-1.6-3.4-3.7v-18.7c0-7.2,3.5-13.1,9.4-17.2C486,227.4,490,226.2,494.2,226.2L494.2,226.2z
		 M442.2,261.2c2.7,0.9,5.7,0.8,8.4,0.3c1.4-0.6,5-2.1,6.3-1.9l0.2,0l0.2,0.1c0.8,0.4,1.6,1,2,1.8c1,1.9,0.5,3.8-1.4,4.9l-0.6,0.4
		c-6.9,4-14.3,3.4-21.2-0.3c-3.3-1.8-5.8-4.4-7.7-7.7l-0.4-0.8c-4.4-7.7-3.9-15.8,1.2-23.2c1.7-2.5,4-4.5,6.6-6l1-0.6
		c6.5-3.8,13.6-3.5,20.2-0.2c3.6,1.8,6.5,4.4,8.5,7.9l0.4,0.6c1.5,2.5-0.4,4.7-2.4,6.3c-2.3,1.8-4.6,3.9-6.7,5.7
		C451.9,252.8,447.1,257,442.2,261.2L442.2,261.2z M436,256.8c5.4-4.7,10.9-9.3,16.3-14c1.9-1.6,3.9-3.2,5.7-4.9
		c-1.5-1.9-3.9-3.2-6-4c-4.2-1.6-8.4-1.1-12.3,1.1c-5.1,2.9-7.2,7.6-7,13.4c0.1,2.3,0.7,4.5,1.9,6.4
		C435,255.6,435.4,256.2,436,256.8z M143.3,208.8h21.6v22.1h10.9c5.1,0,10.2-0.9,15-2.5c2.3-0.8,5-1.9,7.3-3.3
		c-3.1-4-4.6-9-5.1-13.9c-0.6-6.7,0.7-15.5,5.3-20.8l2.3-2.6l2.7,2.2c6.8,5.5,12.6,13.1,13.6,21.8c8.2-2.4,17.9-1.9,25.1,2.3l3,1.7
		l-1.6,3.1c-6.1,11.9-18.9,15.6-31.4,15c-18.7,46.5-59.4,68.5-108.7,68.5c-25.5,0-48.9-9.5-62.2-32.2l-0.2-0.4l-2-4
		c-4.5-9.9-6-20.8-5-31.7l0.3-3.2h18.5v-22.1h21.6v-21.6h43.2v-21.6h25.9V208.8"/>
	<path class="st1" d="M213.3,217c1.4-11.3-7-20.1-12.2-24.3c-6,7-7,25.2,2.5,32.9c-5.3,4.7-16.4,8.9-27.7,8.9H37.4
		c-1.1,11.9,1,22.8,5.7,32.2l1.6,2.9c1,1.7,2.1,3.3,3.2,4.9c5.7,0.4,10.9,0.5,15.8,0.4l0,0c9.5-0.2,17.1-1.3,23-3.3
		c0.9-0.3,1.8,0.2,2.1,1.1c0.2,0.9-0.2,1.7-1,2.1c-0.8,0.3-1.6,0.5-2.4,0.8l0,0c-4.6,1.3-9.5,2.2-15.9,2.6c0.4,0-0.4,0-0.4,0
		c-0.2,0-0.5,0-0.7,0c-2.5,0.1-5.2,0.2-8,0.2c-3,0-6,0-9.3-0.2l-0.1,0c11.6,13,29.5,20.7,52.2,20.7c47.8,0,88.4-21.2,106.4-68.8
		c12.7,1.3,25-2,30.6-12.8C231.3,212,219.8,213.7,213.3,217"/>
	<path class="st2" d="M213.3,217c1.4-11.3-7-20.1-12.2-24.3c-6,7-7,25.2,2.5,32.9c-5.3,4.7-16.4,8.9-27.7,8.9H45.6
		c-0.6,18.2,6.2,32,18.1,40.3l0,0c9.5-0.2,17.1-1.3,23-3.3c0.9-0.3,1.8,0.2,2.1,1.1c0.2,0.9-0.2,1.7-1,2.1c-0.8,0.3-1.6,0.5-2.4,0.8
		l0,0c-4.6,1.3-9.9,2.3-16.3,2.7l-0.1-0.1c16.3,8.4,39.9,8.3,67-2.1c30.4-11.6,58.6-33.9,78.3-59.3
		C213.8,216.7,213.5,216.9,213.3,217"/>
	<path class="st3" d="M37.6,248.9c0.9,6.3,2.7,12.3,5.5,17.8l1.6,2.9c1,1.7,2.1,3.3,3.2,4.9c5.7,0.4,10.9,0.5,15.8,0.4
		c9.5-0.2,17.1-1.3,23-3.3c0.9-0.3,1.8,0.2,2.1,1.1c0.2,0.9-0.2,1.7-1,2.1c-0.8,0.3-1.6,0.5-2.4,0.8l0,0c-4.6,1.3-9.9,2.2-16.3,2.6
		c-0.2,0-0.6,0-0.8,0c-2.5,0.1-5.2,0.2-7.9,0.2c-3,0-6.1,0-9.4-0.2c11.6,13,29.7,20.8,52.3,20.8c41,0,76.6-15.6,97.3-49.9
		L37.6,248.9"/>
	<path class="st4" d="M46.9,248.9c2.4,11.2,8.4,19.9,16.9,25.9c9.5-0.2,17.1-1.3,23-3.3c0.9-0.3,1.8,0.2,2.1,1.1
		c0.2,0.9-0.2,1.7-1,2.1c-0.8,0.3-1.6,0.5-2.4,0.8l0,0c-4.6,1.3-10,2.2-16.4,2.6c16.3,8.4,39.8,8.2,66.9-2.1
		c16.4-6.3,32.1-15.7,46.3-26.9L46.9,248.9"/>
	<path class="st5" d="M56.2,212.4h18.7v18.7H56.2V212.4z M57.7,213.9h1.5v15.6h-1.5V213.9z M60.5,213.9H62v15.6h-1.5V213.9
		L60.5,213.9z M63.4,213.9h1.5v15.6h-1.5V213.9z M66.2,213.9h1.5v15.6h-1.5V213.9z M69,213.9h1.5v15.6H69V213.9L69,213.9z
		 M71.9,213.9h1.5v15.6h-1.5V213.9z M77.8,190.8h18.7v18.7H77.8V190.8L77.8,190.8z M79.3,192.4h1.5V208h-1.5V192.4z M82.1,192.4h1.5
		V208h-1.5V192.4L82.1,192.4z M84.9,192.4h1.5V208h-1.5V192.4z M87.8,192.4h1.5V208h-1.5V192.4z M90.6,192.4h1.5V208h-1.5V192.4z
		 M93.4,192.4h1.5V208h-1.5V192.4z"/>
	<path class="st6" d="M77.8,212.4h18.7v18.7H77.8V212.4L77.8,212.4z M79.3,213.9h1.5v15.6h-1.5V213.9z M82.1,213.9h1.5v15.6h-1.5
		V213.9L82.1,213.9z M84.9,213.9h1.5v15.6h-1.5V213.9z M87.8,213.9h1.5v15.6h-1.5V213.9z M90.6,213.9h1.5v15.6h-1.5V213.9z
		 M93.4,213.9h1.5v15.6h-1.5V213.9z"/>
	<path class="st5" d="M99.4,212.4h18.7v18.7H99.4V212.4z M100.9,213.9h1.5v15.6h-1.5V213.9z M103.7,213.9h1.5v15.6h-1.5V213.9z
		 M106.5,213.9h1.5v15.6h-1.5V213.9z M109.4,213.9h1.5v15.6h-1.5V213.9z M112.2,213.9h1.5v15.6h-1.5V213.9z M115.1,213.9h1.5v15.6
		h-1.5V213.9z"/>
	<path class="st6" d="M99.4,190.8h18.7v18.7H99.4V190.8z M100.9,192.4h1.5V208h-1.5V192.4z M103.7,192.4h1.5V208h-1.5V192.4z
		 M106.5,192.4h1.5V208h-1.5V192.4z M109.4,192.4h1.5V208h-1.5V192.4z M112.2,192.4h1.5V208h-1.5V192.4z M115.1,192.4h1.5V208h-1.5
		V192.4z M121,212.4h18.7v18.7H121L121,212.4L121,212.4z M122.5,213.9h1.5v15.6h-1.5V213.9z M125.3,213.9h1.5v15.6h-1.5V213.9z
		 M128.1,213.9h1.5v15.6h-1.5V213.9z M131,213.9h1.5v15.6H131V213.9z M133.8,213.9h1.5v15.6h-1.5V213.9z M136.6,213.9h1.5v15.6h-1.5
		V213.9z"/>
	<path class="st5" d="M121,190.8h18.7v18.7H121L121,190.8L121,190.8z M122.5,192.4h1.5V208h-1.5V192.4z M125.3,192.4h1.5V208h-1.5
		V192.4z M128.1,192.4h1.5V208h-1.5V192.4z M131,192.4h1.5V208H131V192.4z M133.8,192.4h1.5V208h-1.5V192.4z M136.6,192.4h1.5V208
		h-1.5V192.4z"/>
	<path class="st6" d="M121,169.2h18.7v18.7H121L121,169.2L121,169.2z M122.5,170.8h1.5v15.6h-1.5V170.8L122.5,170.8z M125.3,170.8
		h1.5v15.6h-1.5V170.8L125.3,170.8z M128.1,170.8h1.5v15.6h-1.5V170.8L128.1,170.8z M131,170.8h1.5v15.6H131V170.8L131,170.8z
		 M133.8,170.8h1.5v15.6h-1.5V170.8L133.8,170.8z M136.6,170.8h1.5v15.6h-1.5V170.8L136.6,170.8z"/>
	<path class="st5" d="M142.6,212.4h18.7v18.7h-18.7V212.4z M144.1,213.9h1.5v15.6h-1.5V213.9L144.1,213.9z M146.9,213.9h1.5v15.6
		h-1.5V213.9L146.9,213.9z M149.7,213.9h1.5v15.6h-1.5V213.9z M152.6,213.9h1.5v15.6h-1.5V213.9z M155.4,213.9h1.5v15.6h-1.5V213.9z
		 M158.3,213.9h1.5v15.6h-1.5V213.9z"/>
	<path class="st7" d="M95.3,261.5c2.9,0,5.2,2.2,5.3,5.1c0,2.9-2.2,5.2-5.1,5.3c0,0-0.1,0-0.1,0c-2.9,0-5.2-2.4-5.1-5.3
		C90.2,263.8,92.5,261.5,95.3,261.5"/>
	<path class="st0" d="M95.3,262.9c0.5,0,0.9,0.1,1.3,0.2c-0.7,0.4-1,1.3-0.5,2.1c0.3,0.5,0.8,0.8,1.3,0.8c0.6,0,1.1-0.3,1.3-0.8
		c0.8,1.9-0.1,4.1-2,4.8c-1.9,0.8-4.1-0.1-4.8-2c-0.8-1.9,0.1-4.1,2-4.8C94.3,263,94.8,262.9,95.3,262.9 M4,250.8h240.2
		c-5.3-1.3-16.6-3.1-14.7-10c-9.5,11-32.5,7.7-38.2,2.3c-6.4,9.4-44,5.8-46.6-1.5c-8.1,9.5-33.1,9.5-41.2,0
		c-2.6,7.3-40.1,10.8-46.6,1.5c-5.8,5.4-28.7,8.7-38.2-2.3C20.5,247.6,9.2,249.5,4,250.8"/>
	<path class="st8" d="M109.1,298.7c-12.8-6.1-19.8-14.3-23.7-23.3c-4.8,1.3-10.5,2.2-17.1,2.6c-2.5,0.1-5.1,0.2-7.9,0.2
		c-3.2,0-6.5-0.1-10.1-0.3c11.7,11.7,26.2,20.8,52.9,20.9C105.1,298.8,107.1,298.8,109.1,298.7"/>
	<path class="st7" d="M90.1,283.7c-1.8-2.4-3.5-5.4-4.7-8.3c-4.8,1.3-10.5,2.2-17.1,2.6C72.8,280.4,79.3,282.7,90.1,283.7"/>
</g>
</svg>
