<svg id="Layer_1" data-name="Layer 1" xmlns="http://www.w3.org/2000/svg" viewBox="0 0 500 250"><defs><style>.cls-1{fill:#364548;}.cls-1,.cls-2,.cls-3,.cls-4,.cls-5,.cls-6,.cls-7,.cls-8,.cls-9{fill-rule:evenodd;}.cls-2{fill:#22a0c8;}.cls-3{fill:#37b1d9;}.cls-4{fill:#1b81a5;}.cls-5{fill:#1d91b4;}.cls-6{fill:#23a3c2;}.cls-7{fill:#34bbde;}.cls-8{fill:#d3ecec;}.cls-9{fill:#bdd9d7;}</style></defs><path class="cls-1" d="M292.39,121.89V106.23a3.43,3.43,0,0,1,3.44-3.74h.6c2.13,0,3.34,1.62,3.34,3.74v32.94c0,8-3.94,14.34-10.81,18.48a20.25,20.25,0,0,1-10.51,2.83H277c-8,0-14.35-3.94-18.49-10.81a20.24,20.24,0,0,1-2.83-10.5v-1.42c0-8,3.94-14.34,10.81-18.49A20.25,20.25,0,0,1,277,116.43h1.41a20.63,20.63,0,0,1,13.94,5.46ZM263.1,138.46c0,5.76,2.82,10.1,7.88,12.93a13.84,13.84,0,0,0,6.56,1.72c5.66,0,9.9-2.73,12.83-7.48a14,14,0,0,0,2-7.27c0-5.05-2.32-8.89-6.36-11.82a13.5,13.5,0,0,0-8.29-2.63c-6.16,0-10.6,3.13-13.33,8.69a12.5,12.5,0,0,0-1.31,5.86Zm62.33-22h1c8.59,0,15.05,4.15,19.19,11.62a20.39,20.39,0,0,1,2.53,9.7v1.42c0,8-3.94,14.44-10.81,18.48a20.25,20.25,0,0,1-10.51,2.83h-1.41c-8,0-14.35-3.94-18.49-10.81a20.24,20.24,0,0,1-2.83-10.5v-1.42c0-8,3.94-14.34,10.81-18.49a20.28,20.28,0,0,1,10.51-2.83Zm-13.84,22c0,5.66,2.73,9.7,7.47,12.73a14.15,14.15,0,0,0,7.28,2c5.56,0,9.6-2.83,12.53-7.48a14.09,14.09,0,0,0,2-7.27c0-5.25-2.53-9.19-6.77-12.12a13.29,13.29,0,0,0-7.78-2.33c-6.16,0-10.61,3.13-13.34,8.69a10,10,0,0,0-1.41,5.76ZM379,124.32a12.9,12.9,0,0,0-4.34-.71c-6.16-.2-10.61,3.23-13.23,8.69a13.51,13.51,0,0,0-1.32,6c0,6.36,3.34,10.71,9,13.43a16.58,16.58,0,0,0,7,1.11c2,0,4.75-1.21,6.57-2.12l.3-.1h1.42a3.21,3.21,0,0,1,2.93,3.23v.71c0,4.45-8.29,5.56-11.42,5.76-11.11.81-19.4-5.35-22.53-15.86a20.76,20.76,0,0,1-.81-5.56v-1.41c0-8,4.05-14.35,10.81-18.49a20.28,20.28,0,0,1,10.51-2.83h1.42a18.69,18.69,0,0,1,10.81,3.34l.3.2.2.3a4.48,4.48,0,0,1,.71,1.92v.71c0,1.92-1.42,2.93-3.13,3.23h-.51c-1.21.2-3.74-1-4.65-1.51Zm23.95,5.05c2.93-2.93,5.76-5.76,8.69-8.59.8-.81,3.94-4.14,5.15-4.14h1.41a3.19,3.19,0,0,1,2.93,3.23v.71c0,1.21-1.41,2.62-2.22,3.53-1.72,1.82-3.44,3.54-5.25,5.36l-8.89,9.09c3.83,3.84,7.67,7.68,11.51,11.62,1.11,1.11,2.12,2.12,3.13,3.23a8,8,0,0,1,1.22,1.42,3.41,3.41,0,0,1,.5,1.71v1c-.4,1.72-1.51,3-3.33,3h-.61c-1.21,0-2.62-1.41-3.43-2.12-1.72-1.61-3.34-3.33-5.05-5.05L403,147.85v8.89a3.43,3.43,0,0,1-3.44,3.74H399a3.43,3.43,0,0,1-3.44-3.74V106.43A3.43,3.43,0,0,1,399,102.7h.6a3.43,3.43,0,0,1,3.44,3.73v22.94Zm92.13-12.63h.71a3.55,3.55,0,0,1,3.74,3.74c0,3-2.93,3.84-5.46,3.84-3.33,0-6.46,2-8.79,4.24a14.19,14.19,0,0,0-4.14,10.4v17.89a3.42,3.42,0,0,1-3.43,3.73h-.61a3.42,3.42,0,0,1-3.43-3.73V138c0-7.27,3.53-13.23,9.49-17.37a20,20,0,0,1,11.92-3.84ZM442.52,152.1a17.22,17.22,0,0,0,8.49.3c1.41-.61,5.05-2.12,6.36-1.92h.2l.21.1a4.52,4.52,0,0,1,2,1.82,3.48,3.48,0,0,1-1.42,4.95l-.6.41c-7,4-14.45,3.43-21.42-.31a19.8,19.8,0,0,1-7.78-7.78l-.41-.81c-4.44-7.77-3.94-16,1.22-23.43a20.16,20.16,0,0,1,6.66-6.07l1-.6c6.57-3.84,13.74-3.54,20.41-.2a19.78,19.78,0,0,1,8.59,8l.4.6c1.52,2.53-.4,4.75-2.42,6.37-2.32,1.82-4.65,3.94-6.77,5.76-4.95,4.34-9.8,8.58-14.75,12.83Zm-6.26-4.45c5.45-4.75,11-9.39,16.46-14.14,1.92-1.62,3.94-3.23,5.76-4.95A14.94,14.94,0,0,0,440,125.63c-5.15,2.93-7.27,7.68-7.07,13.54a13.07,13.07,0,0,0,1.92,6.46A7.2,7.2,0,0,0,436.26,147.65ZM140.55,99.16h21.82v22.33h11A48.06,48.06,0,0,0,188.54,119a40,40,0,0,0,7.37-3.33,27.44,27.44,0,0,1-5.15-14c-.61-6.76.71-15.66,5.35-21l2.33-2.63,2.73,2.23c6.87,5.55,12.73,13.23,13.74,22,8.28-2.42,18.08-1.92,25.35,2.32l3,1.72-1.61,3.13c-6.16,12-19.1,15.76-31.72,15.16-18.9,47-60,69.2-109.82,69.2-25.76,0-49.4-9.6-62.84-32.53l-.2-.4-2-4a63.06,63.06,0,0,1-5-32l.3-3.23H49V99.16H70.84V77.34h43.64V55.52h26.17V99.16"/><path class="cls-2" d="M211.27,107.44c1.41-11.41-7.07-20.3-12.33-24.55-6.06,7.08-7.07,25.46,2.53,33.24-5.36,4.75-16.57,9-28,9H33.56a59.65,59.65,0,0,0,5.76,32.53l1.62,2.93c1,1.72,2.12,3.34,3.23,4.95,5.76.41,11,.51,16,.41h0c9.6-.2,17.28-1.32,23.24-3.34a1.67,1.67,0,0,1,2.12,1.12,1.85,1.85,0,0,1-1,2.12c-.81.3-1.62.5-2.43.81h0A73.79,73.79,0,0,1,66,169.27H64.88c-2.53.1-5.25.2-8.08.2-3,0-6.06,0-9.4-.2h-.1C59,182.41,77.1,190.18,100,190.18c48.29,0,89.31-21.41,107.49-69.5,12.83,1.31,25.26-2,30.91-12.93-9-5.36-20.6-3.64-27.17-.31"/><path class="cls-3" d="M211.27,107.44c1.41-11.41-7.07-20.3-12.33-24.55-6.06,7.08-7.07,25.46,2.53,33.24-5.36,4.75-16.57,9-28,9H41.85c-.61,18.39,6.26,32.33,18.28,40.72h0c9.6-.2,17.28-1.32,23.24-3.34a1.67,1.67,0,0,1,2.12,1.11,1.86,1.86,0,0,1-1,2.13c-.81.3-1.62.5-2.43.8h0a76.79,76.79,0,0,1-16.46,2.73l-.1-.1c16.46,8.49,40.31,8.39,67.68-2.12,30.72-11.72,59.21-34.25,79.11-59.91a2,2,0,0,0-1,.3"/><path class="cls-4" d="M33.76,139.67a57.24,57.24,0,0,0,5.56,18l1.62,2.93c1,1.72,2.12,3.34,3.23,4.95,5.76.41,11,.51,16,.41,9.6-.2,17.28-1.32,23.24-3.34a1.67,1.67,0,0,1,2.12,1.12,1.85,1.85,0,0,1-1,2.12c-.81.3-1.62.5-2.43.81h0a78,78,0,0,1-16.46,2.62h-.81c-2.53.1-5.25.2-8,.2-3,0-6.16,0-9.5-.2,11.72,13.14,30,21,52.84,21,41.42,0,77.39-15.76,98.3-50.42l-164.68-.2"/><path class="cls-5" d="M43.16,139.67a42,42,0,0,0,17.07,26.17c9.6-.2,17.28-1.32,23.24-3.34a1.67,1.67,0,0,1,2.12,1.11,1.86,1.86,0,0,1-1,2.13c-.81.3-1.62.5-2.42.8h0a78.49,78.49,0,0,1-16.57,2.63c16.46,8.49,40.21,8.29,67.58-2.12A181.84,181.84,0,0,0,180,139.87l-136.79-.2"/><path class="cls-6" d="M52.55,102.8h18.9v18.89H52.55Zm1.52,1.51h1.52v15.76H54.07Zm2.83,0h1.51v15.76H56.9V104.31Zm2.93,0h1.51v15.76H59.83Zm2.83,0h1.51v15.76H62.66Zm2.83,0H67v15.76H65.49V104.31Zm2.93,0h1.51v15.76H68.42Zm6-23.34H93.27v18.9H74.38V81Zm1.51,1.62h1.52V98.35H75.89Zm2.83,0h1.52V98.35H78.72V82.59Zm2.83,0h1.51V98.35H81.55Zm2.93,0H86V98.35H84.48Zm2.83,0h1.51V98.35H87.31Zm2.83,0h1.51V98.35H90.14Z"/><path class="cls-7" d="M74.38,102.8H93.27v18.89H74.38V102.8Zm1.51,1.51h1.52v15.76H75.89Zm2.83,0h1.52v15.76H78.72V104.31Zm2.83,0h1.51v15.76H81.55Zm2.93,0H86v15.76H84.48Zm2.83,0h1.51v15.76H87.31Zm2.83,0h1.51v15.76H90.14Z"/><path class="cls-6" d="M96.2,102.8h18.89v18.89H96.2Zm1.51,1.51h1.52v15.76H97.71Zm2.83,0h1.52v15.76h-1.52Zm2.83,0h1.52v15.76h-1.52Zm2.93,0h1.52v15.76H106.3Zm2.83,0h1.52v15.76h-1.52Zm2.93,0h1.52v15.76h-1.52Z"/><path class="cls-7" d="M96.2,81h18.89v18.9H96.2Zm1.51,1.62h1.52V98.35H97.71Zm2.83,0h1.52V98.35h-1.52Zm2.83,0h1.52V98.35h-1.52Zm2.93,0h1.52V98.35H106.3Zm2.83,0h1.52V98.35h-1.52Zm2.93,0h1.52V98.35h-1.52Zm6,20.21h18.89v18.89H118V102.8Zm1.52,1.51h1.51v15.76h-1.51Zm2.82,0h1.52v15.76h-1.52Zm2.83,0h1.52v15.76h-1.52Zm2.93,0h1.52v15.76h-1.52Zm2.83,0h1.52v15.76H131Zm2.83,0h1.52v15.76h-1.52Z"/><path class="cls-6" d="M118,81h18.89v18.9H118V81Zm1.52,1.62h1.51V98.35h-1.51Zm2.82,0h1.52V98.35h-1.52Zm2.83,0h1.52V98.35h-1.52Zm2.93,0h1.52V98.35h-1.52Zm2.83,0h1.52V98.35H131Zm2.83,0h1.52V98.35h-1.52Z"/><path class="cls-7" d="M118,59.15h18.89V78H118V59.15Zm1.52,1.62h1.51V76.53h-1.51V60.77Zm2.82,0h1.52V76.53h-1.52V60.77Zm2.83,0h1.52V76.53h-1.52V60.77Zm2.93,0h1.52V76.53h-1.52V60.77Zm2.83,0h1.52V76.53H131V60.77Zm2.83,0h1.52V76.53h-1.52V60.77Z"/><path class="cls-6" d="M139.84,102.8h18.89v18.89H139.84Zm1.52,1.51h1.51v15.76h-1.51V104.31Zm2.83,0h1.51v15.76h-1.51V104.31Zm2.83,0h1.51v15.76H147Zm2.92,0h1.52v15.76h-1.52Zm2.83,0h1.52v15.76h-1.52Zm2.93,0h1.52v15.76H155.7Z"/><path class="cls-8" d="M92.06,152.4a5.26,5.26,0,0,1,.2,10.51h-.1A5.15,5.15,0,0,1,87,157.55a5,5,0,0,1,5-5.15"/><path class="cls-1" d="M92.06,153.81a5.13,5.13,0,0,1,1.31.21,1.48,1.48,0,0,0-.51,2.12,1.6,1.6,0,0,0,1.32.81,1.36,1.36,0,0,0,1.31-.81,3.72,3.72,0,1,1-4.85-2,3.29,3.29,0,0,1,1.42-.31M-.18,141.59H242.49c-5.36-1.31-16.77-3.13-14.86-10.1C218,142.6,194.8,139.27,189,133.81c-6.46,9.5-44.45,5.86-47.08-1.51-8.18,9.59-33.44,9.59-41.62,0-2.63,7.37-40.51,10.91-47.08,1.51-5.86,5.46-29,8.79-38.59-2.32,1.82,6.87-9.6,8.79-14.85,10.1"/><path class="cls-9" d="M106,190c-12.93-6.16-20-14.44-24-23.54a85.62,85.62,0,0,1-17.27,2.63c-2.53.1-5.15.2-8,.2-3.24,0-6.57-.1-10.21-.3,11.82,11.82,26.47,21,53.45,21.11,1.92,0,3.94,0,6-.1"/><path class="cls-8" d="M86.8,174.83a40.46,40.46,0,0,1-4.75-8.39,85.62,85.62,0,0,1-17.27,2.63c4.55,2.42,11.11,4.75,22,5.76"/></svg>