<?xml version="1.0" encoding="utf-8"?>
<!-- Generator: Adobe Illustrator 25.2.1, SVG Export Plug-In . SVG Version: 6.00 Build 0)  -->
<svg version="1.1" id="layer" xmlns="http://www.w3.org/2000/svg" xmlns:xlink="http://www.w3.org/1999/xlink" x="0px" y="0px"
	 viewBox="0 0 500 500" style="enable-background:new 0 0 500 500;" xml:space="preserve">
<style type="text/css">
	.st0{fill:#24292E;}
	.st1{fill-rule:evenodd;clip-rule:evenodd;fill:#24292E;}
</style>
<path class="st0" d="M306.3,278h-0.2C306.2,278,306.2,278.1,306.3,278L306.3,278L306.3,278z M306.3,278.1c-0.7,0-2.4,0.3-4.2,0.3
	c-5.7,0-7.7-2.7-7.7-6.1v-23h11.7c0.7,0,1.2-0.6,1.2-1.4v-12.5c0-0.7-0.6-1.2-1.2-1.2h-11.7v-15.6c0-0.6-0.4-0.9-1.1-0.9h-15.9
	c-0.7,0-1,0.4-1,0.9v16c0,0-8,2-8.5,2.1c-0.6,0.2-0.9,0.7-0.9,1.2v10c0,0.8,0.6,1.4,1.2,1.4h8.1v24.2c0,18,12.5,19.8,21.1,19.8
	c3.9,0,8.6-1.2,9.4-1.7c0.4-0.2,0.7-0.7,0.7-1.2v-11C307.4,278.8,307,278.3,306.3,278.1L306.3,278.1z M480.9,261.9
	c0-13.3-5.4-15.1-11-14.5c-4.4,0.2-8,2.5-8,2.5v26c0,0,3.6,2.5,9,2.7C478.4,278.7,480.9,276,480.9,261.9L480.9,261.9z M498.8,260.8
	c0,25.3-8.2,32.5-22.5,32.5c-12.1,0-18.6-6.1-18.6-6.1s-0.2,3.4-0.7,3.8c-0.2,0.4-0.6,0.6-1.1,0.6h-10.9c-0.7,0-1.4-0.6-1.4-1.2
	l0.2-81.8c0-0.7,0.6-1.2,1.2-1.2h15.7c0.7,0,1.2,0.6,1.2,1.2v27.8c0,0,6.1-3.9,14.9-3.9l-0.1-0.2
	C485.7,232.2,498.8,235.5,498.8,260.8L498.8,260.8z M434.6,234.2h-15.5c-0.8,0-1.2,0.6-1.2,1.4v40c0,0-4.1,2.8-9.6,2.8
	c-5.5,0-7.1-2.5-7.1-8v-35c0-0.7-0.6-1.2-1.2-1.2h-15.8c-0.7,0-1.2,0.6-1.2,1.2v37.7c0,16.2,9,20.2,21.5,20.2
	c10.3,0,18.6-5.6,18.6-5.6s0.4,2.9,0.6,3.3c0.2,0.3,0.7,0.7,1.2,0.7h9.9c0.8,0,1.2-0.6,1.2-1.2l0.2-55.1
	C436,234.8,435.3,234.2,434.6,234.2L434.6,234.2z M260,234.1h-15.7c-0.7,0-1.2,0.7-1.2,1.5v54.1c0,1.5,1,2,2.2,2h14.2
	c1.5,0,1.8-0.7,1.8-2v-54.3C261.2,234.7,260.6,234.1,260,234.1L260,234.1z M252.2,209.1c-5.6,0-10.2,4.5-10.2,10.2
	c0,5.6,4.5,10.2,10.2,10.2c5.6,0,10-4.5,10-10.2C262.2,213.7,257.7,209.1,252.2,209.1L252.2,209.1z M373.7,207.3h-15.6
	c-0.7,0-1.2,0.6-1.2,1.2v30.1h-24.4v-30.1c0-0.7-0.6-1.2-1.2-1.2h-15.7c-0.7,0-1.2,0.6-1.2,1.2v81.8c0,0.7,0.7,1.2,1.2,1.2h15.7
	c0.7,0,1.2-0.6,1.2-1.2v-35h24.4l-0.2,35c0,0.7,0.6,1.2,1.2,1.2h15.7c0.7,0,1.2-0.6,1.2-1.2v-81.8
	C375,207.9,374.4,207.3,373.7,207.3L373.7,207.3z M234.7,243.5v42.3c0,0.2-0.1,0.8-0.4,0.9c0,0-9.2,6.5-24.4,6.5
	c-18.3,0-40.1-5.7-40.1-43.6s19-45.7,37.6-45.6c16.1,0,22.6,3.6,23.5,4.3c0.2,0.4,0.4,0.7,0.4,1l-3,13.2c0,0.7-0.7,1.5-1.5,1.2
	c-2.7-0.8-6.6-2.4-16-2.4c-10.9,0-22.5,3.1-22.5,27.5c0,24.4,11,27.3,19,27.3c6.8,0,9.2-0.8,9.2-0.8v-16.9h-10.9
	c-0.8,0-1.4-0.6-1.4-1.2v-13.6c0-0.7,0.6-1.2,1.4-1.2h27.6C234.1,242.3,234.7,242.9,234.7,243.5L234.7,243.5z"/>
<path class="st1" d="M64.5,183.1c-34.9,0-63.2,28.3-63.2,63.2c0,27.9,18.1,51.6,43.2,59.9c3.2,0.5,4.4-1.3,4.4-3
	c0-1.5-0.1-6.5-0.1-11.8c-15.8,2.9-20-3.9-21.2-7.4c-0.7-1.8-3.8-7.5-6.5-9c-2.2-1.2-5.4-4.1-0.1-4.2c5-0.1,8.5,4.6,9.7,6.5
	c5.7,9.5,14.8,6.9,18.4,5.2c0.6-4.1,2.2-6.9,4.1-8.5c-14-1.6-28.8-7-28.8-31.2c0-6.9,2.5-12.6,6.5-17c-0.7-1.6-2.8-8,0.7-16.7
	c0,0,5.3-1.7,17.4,6.5c5.1-1.4,10.4-2.2,15.8-2.2c5.4,0,10.7,0.7,15.8,2.2c12.1-8.2,17.3-6.5,17.3-6.5c3.5,8.7,1.2,15.2,0.7,16.7
	c4.1,4.4,6.5,10,6.5,17c0,24.2-14.8,29.6-28.9,31.2c2.3,2,4.3,5.7,4.3,11.7c0,8.5-0.1,15.3-0.1,17.3c0,1.7,1.2,3.6,4.3,3
	c25.7-8.7,43-32.8,43-59.9C127.7,211.4,99.4,183.1,64.5,183.1L64.5,183.1z"/>
</svg>
