<svg id="Layer_1" data-name="Layer 1" xmlns="http://www.w3.org/2000/svg" viewBox="0 0 500 250"><defs><style>.cls-1,.cls-2{fill:#24292e;}.cls-2{fill-rule:evenodd;}</style></defs><path class="cls-1" d="M306.62,167.34h-.2c.1,0,.1.1.2,0Zm0,.1c-.7,0-2.4.3-4.2.3-5.72,0-7.72-2.7-7.72-6.11v-23h11.72a1.27,1.27,0,0,0,1.21-1.4V124.65a1.22,1.22,0,0,0-1.21-1.2H294.7V107.82c0-.6-.4-.9-1.1-.9H277.67c-.7,0-1,.4-1,.9v16s-8,2-8.51,2.11a1.26,1.26,0,0,0-.9,1.2v10a1.34,1.34,0,0,0,1.2,1.4h8.11v24.25c0,18,12.53,19.84,21.15,19.84a28,28,0,0,0,9.42-1.7,1.39,1.39,0,0,0,.7-1.21v-11a1.59,1.59,0,0,0-1.21-1.3Zm175-16.23c0-13.33-5.41-15.13-11-14.53a18.14,18.14,0,0,0-8,2.5v26.06a18.24,18.24,0,0,0,9,2.7c7.52.1,10-2.6,10-16.73Zm17.94-1.1c0,25.35-8.22,32.56-22.55,32.56-12.12,0-18.63-6.11-18.63-6.11s-.2,3.4-.7,3.81a1.16,1.16,0,0,1-1.11.6H445.6a1.41,1.41,0,0,1-1.4-1.21l.2-82a1.22,1.22,0,0,1,1.2-1.2h15.73a1.22,1.22,0,0,1,1.21,1.2v27.86a30,30,0,0,1,14.93-3.91l-.1-.2c9-.1,22.14,3.2,22.14,28.56Zm-64.33-26.66H419.65c-.8,0-1.2.6-1.2,1.4v40.08a18.67,18.67,0,0,1-9.62,2.81c-5.51,0-7.12-2.5-7.12-8V124.65a1.22,1.22,0,0,0-1.2-1.2H384.68a1.22,1.22,0,0,0-1.2,1.2v37.78c0,16.23,9,20.24,21.54,20.24a37.05,37.05,0,0,0,18.64-5.61,30.23,30.23,0,0,0,.6,3.31,1.64,1.64,0,0,0,1.2.7h9.92a1.16,1.16,0,0,0,1.2-1.21l.2-55.21a1.86,1.86,0,0,0-1.6-1.2Zm-174.95-.1H244.5a1.37,1.37,0,0,0-1.2,1.5v54.21c0,1.51,1,2,2.2,2h14.23c1.5,0,1.8-.7,1.8-2V124.65a1.48,1.48,0,0,0-1.3-1.3Zm-7.81-25a10.22,10.22,0,0,0,0,20.44,10,10,0,0,0,10-10.22,10.16,10.16,0,0,0-10-10.22Zm121.74-1.8H358.53a1.22,1.22,0,0,0-1.2,1.2v30.16H332.88V97.7a1.22,1.22,0,0,0-1.21-1.2H315.94a1.22,1.22,0,0,0-1.2,1.2v82a1.29,1.29,0,0,0,1.2,1.21h15.73a1.22,1.22,0,0,0,1.21-1.21V144.59h24.45l-.2,35.07a1.22,1.22,0,0,0,1.2,1.21h15.73a1.22,1.22,0,0,0,1.2-1.21v-82c.2-.6-.4-1.2-1.1-1.2ZM234.88,132.77v42.39c0,.2-.1.8-.4.9,0,0-9.22,6.51-24.45,6.51-18.34,0-40.18-5.71-40.18-43.69s19-45.79,37.68-45.69c16.13,0,22.64,3.61,23.54,4.31a2.6,2.6,0,0,1,.4,1l-3,13.23c0,.7-.7,1.5-1.5,1.2-2.71-.8-6.62-2.4-16-2.4-10.92,0-22.54,3.1-22.54,27.55s11,27.36,19,27.36c6.81,0,9.21-.81,9.21-.81V147.7H205.72a1.34,1.34,0,0,1-1.4-1.2V132.87a1.27,1.27,0,0,1,1.4-1.2h27.66a1.25,1.25,0,0,1,1.5,1.1Z"/><path class="cls-2" d="M64.34,72.25a63.3,63.3,0,0,0-20,123.35c3.21.5,4.41-1.31,4.41-3,0-1.5-.1-6.51-.1-11.82-15.83,2.9-20-3.91-21.24-7.42-.7-1.8-3.81-7.51-6.52-9-2.2-1.2-5.41-4.1-.1-4.2,5-.1,8.52,4.6,9.72,6.51,5.71,9.52,14.83,6.91,18.44,5.21.6-4.11,2.2-6.92,4.11-8.52-14-1.6-28.86-7-28.86-31.26a24.75,24.75,0,0,1,6.51-17c-.7-1.61-2.8-8,.7-16.74,0,0,5.32-1.7,17.44,6.51a59.89,59.89,0,0,1,15.83-2.2,56,56,0,0,1,15.83,2.2C92.6,96.6,97.81,98.3,97.81,98.3a23.42,23.42,0,0,1,.7,16.74,24.08,24.08,0,0,1,6.51,17c0,24.25-14.83,29.66-29,31.26,2.31,2,4.31,5.71,4.31,11.73,0,8.51-.1,15.33-.1,17.33,0,1.7,1.2,3.61,4.31,3A63.22,63.22,0,0,0,64.34,72.25Z"/></svg>