<?xml version="1.0" encoding="utf-8"?>
<!-- Generator: Adobe Illustrator 25.2.1, SVG Export Plug-In . SVG Version: 6.00 Build 0)  -->
<svg version="1.1" id="Capa_1" xmlns="http://www.w3.org/2000/svg" xmlns:xlink="http://www.w3.org/1999/xlink" x="0px" y="0px"
	 viewBox="0 0 500 500" style="enable-background:new 0 0 500 500;" xml:space="preserve">
<style type="text/css">
	.st0{fill-rule:evenodd;clip-rule:evenodd;fill:#3174B9;}
	.st1{fill-rule:evenodd;clip-rule:evenodd;fill:#CA3132;}
</style>
<g>
	<path class="st0" d="M76.4,309.3c0,0-11.3,6.6,8,8.8c23.4,2.7,35.4,2.3,61.2-2.6c0,0,6.8,4.3,16.3,7.9
		C104.1,348.2,31,322,76.4,309.3z M69.4,276.9c0,0-12.7,9.4,6.7,11.4c25,2.6,44.8,2.8,79-3.8c0,0,4.7,4.8,12.2,7.4
		C97.2,312.4,19.3,293.5,69.4,276.9z"/>
	<path class="st1" d="M129,222c14.3,16.4-3.7,31.2-3.7,31.2s36.2-18.7,19.6-42.1c-15.5-21.8-27.4-32.7,37-70
		C181.8,141.1,80.6,166.4,129,222z"/>
	<path class="st0" d="M205.5,333.2c0,0,8.4,6.9-9.2,12.2c-33.4,10.1-139,13.2-168.3,0.4c-10.5-4.6,9.2-11,15.5-12.3
		c6.5-1.4,10.2-1.1,10.2-1.1c-11.7-8.3-75.8,16.2-32.5,23.2C139,374.8,236.1,347,205.5,333.2L205.5,333.2z M81.9,243.4
		c0,0-53.7,12.8-19,17.4c14.7,2,43.8,1.5,71.1-0.8c22.2-1.9,44.6-5.9,44.6-5.9s-7.8,3.4-13.5,7.2c-54.6,14.4-159.9,7.7-129.6-7
		C61,242,81.9,243.4,81.9,243.4L81.9,243.4z M178.2,297.3c55.5-28.8,29.8-56.5,11.9-52.8c-4.4,0.9-6.3,1.7-6.3,1.7s1.6-2.6,4.7-3.7
		c35.4-12.4,62.6,36.7-11.4,56.2C177.1,298.7,178,298,178.2,297.3z"/>
	<path class="st1" d="M144.8,80.7c0,0,30.7,30.7-29.1,78c-48,37.9-10.9,59.5,0,84.2c-28-25.3-48.6-47.5-34.8-68.2
		C101.1,144.3,157.2,129.5,144.8,80.7L144.8,80.7z"/>
	<path class="st0" d="M87.3,375.4c53.2,3.4,135-1.9,136.9-27.1c0,0-3.7,9.5-44,17.1c-45.4,8.6-101.5,7.6-134.7,2.1
		C45.5,367.5,52.3,373.1,87.3,375.4z"/>
	<path class="st1" d="M484,236.8h-1.6v-0.9h4.4v0.9h-1.6v4.5H484V236.8z M492.7,237L492.7,237l-1.6,4.3h-0.7l-1.6-4.3h0v4.3h-1.1
		v-5.4h1.6l1.5,3.8l1.5-3.8h1.6v5.4h-1L492.7,237L492.7,237L492.7,237z M340.8,287.8c-5,4.3-10.3,6.8-15.1,6.8
		c-6.8,0-10.5-4.1-10.5-10.6c0-7.1,3.9-12.2,19.7-12.2h5.8L340.8,287.8L340.8,287.8z M354.7,303.4v-48.4c0-12.4-7.1-20.5-24.1-20.5
		c-9.9,0-18.6,2.4-25.7,5.6l2,8.6c5.6-2,12.8-3.9,19.8-3.9c9.8,0,14,3.9,14,12.1v6.1H336c-23.8,0-34.5,9.2-34.5,23.1
		c0,12,7.1,18.8,20.4,18.8c8.6,0,15-3.5,20.9-8.7l1.1,7.3H354.7z M400.9,303.4h-17.3l-20.8-67.7H378l12.9,41.6l2.9,12.5
		c6.5-18.1,11.1-36.4,13.4-54.1h14.7C417.9,258.1,410.9,282.5,400.9,303.4z M467.2,287.8c-5,4.3-10.3,6.8-15.1,6.8
		c-6.8,0-10.5-4.1-10.5-10.6c0-7.1,3.9-12.2,19.7-12.2h5.8V287.8z M481.1,303.4v-48.4c0-12.4-7.1-20.5-24.1-20.5
		c-9.9,0-18.6,2.4-25.7,5.6l2,8.6c5.6-2,12.8-3.9,19.9-3.9c9.8,0,14,3.9,14,12.1v6.1h-4.9c-23.8,0-34.5,9.2-34.5,23.1
		c0,12,7.1,18.8,20.4,18.8c8.6,0,15-3.5,20.9-8.7l1.1,7.3H481.1z M286.2,314.9c-3.9,5.8-10.3,10.3-17.3,12.9l-6.8-8.1
		c5.3-2.7,9.9-7.1,12-11.2c1.8-3.7,2.6-8.4,2.6-19.6v-77.3h14.7v76.2C291.4,302.9,290.2,309,286.2,314.9z"/>
</g>
</svg>
