<svg id="Layer_1" data-name="Layer 1" xmlns="http://www.w3.org/2000/svg" viewBox="0 0 500 250"><defs><style>.cls-1{fill:#3174b9;}.cls-1,.cls-2{fill-rule:evenodd;}.cls-2{fill:#ca3132;}</style></defs><path class="cls-1" d="M94.13,167.22s-6.4,3.74,4.54,5c13.26,1.53,20.07,1.3,34.69-1.48a56.81,56.81,0,0,0,9.24,4.48C109.84,189.27,68.4,174.42,94.13,167.22Zm-4-18.37S83,154.18,94,155.32c14.18,1.47,25.4,1.58,44.79-2.16a19.52,19.52,0,0,0,6.91,4.2C105.93,169,61.77,158.26,90.17,148.85Z"/><path class="cls-2" d="M124,117.73c8.11,9.3-2.1,17.69-2.1,17.69s20.52-10.6,11.11-23.87c-8.78-12.35-15.53-18.53,21-39.68C153.88,71.87,96.52,86.22,124,117.73Z"/><path class="cls-1" d="M167.32,180.77s4.76,3.91-5.22,6.91c-18.93,5.73-78.79,7.49-95.4.23-6-2.61,5.21-6.24,8.79-7a21.9,21.9,0,0,1,5.78-.63c-6.64-4.7-43,9.19-18.43,13.15,66.78,10.89,121.82-4.87,104.48-12.69ZM97.25,129.86s-30.44,7.26-10.77,9.87c8.33,1.13,24.83.85,40.31-.46,12.58-1.07,25.28-3.34,25.28-3.34a59.64,59.64,0,0,0-7.66,4.08c-30.95,8.16-90.64,4.37-73.46-4,14.46-7,26.3-6.18,26.3-6.18Zm54.59,30.56c31.46-16.33,16.89-32,6.75-29.93a21.76,21.76,0,0,0-3.58,1,5.64,5.64,0,0,1,2.67-2.1c20.07-7,35.48,20.81-6.46,31.86A2,2,0,0,0,151.84,160.42Z"/><path class="cls-2" d="M132.91,37.64s17.4,17.4-16.5,44.21c-27.21,21.49-6.18,33.73,0,47.73-15.87-14.34-27.55-26.93-19.72-38.66,11.45-17.23,43.25-25.62,36.22-53.28Z"/><path class="cls-1" d="M96.49,204.69c27.64,1.77,70.15-1,71.14-14.08,0,0-1.93,4.93-22.87,8.88-23.59,4.47-52.74,3.95-70,1.09C74.77,200.58,78.3,203.49,96.49,204.69Z"/><path class="cls-2" d="M417.82,110.43h-1.5v-.84h4.13v.84H419v4.23h-1.13Zm8.17.19h0l-1.5,4h-.66l-1.5-4h0v4h-1v-5.07h1.51l1.4,3.57,1.41-3.57h1.5v5.07h-.93l-.19-4Zm-142.63,47.7c-4.69,4-9.67,6.38-14.17,6.38-6.39,0-9.86-3.84-9.86-9.95,0-6.66,3.66-11.45,18.5-11.45h5.44l.09,15ZM296.42,173V127.52c0-11.64-6.67-19.24-22.63-19.24a58.66,58.66,0,0,0-24.13,5.25l1.88,8.08A57.26,57.26,0,0,1,270.13,118c9.2,0,13.14,3.66,13.14,11.36V135h-4.41c-22.35,0-32.4,8.64-32.4,21.69,0,11.27,6.67,17.66,19.16,17.66,8.07,0,14.08-3.29,19.62-8.17l1,6.85h10.14Zm43.37,0H323.55L304,109.4h14.27l12.11,39.06,2.73,11.74a245.17,245.17,0,0,0,12.58-50.8h13.8C355.76,130.43,349.18,153.34,339.79,173ZM402,158.32c-4.69,4-9.67,6.38-14.17,6.38-6.39,0-9.86-3.84-9.86-9.95,0-6.66,3.66-11.45,18.5-11.45H402v15ZM415.1,173V127.52c0-11.64-6.67-19.24-22.63-19.24a58.66,58.66,0,0,0-24.13,5.25l1.88,8.08A57.33,57.33,0,0,1,388.9,118c9.2,0,13.14,3.66,13.14,11.36V135h-4.6c-22.34,0-32.39,8.64-32.39,21.69,0,11.27,6.67,17.66,19.16,17.66,8.07,0,14.08-3.29,19.62-8.17l1,6.85H415.1Zm-183,10.79c-3.66,5.45-9.67,9.68-16.24,12.12l-6.39-7.61c5-2.53,9.3-6.66,11.27-10.51,1.69-3.48,2.44-7.89,2.44-18.41V86.77H237v71.55C237,172.5,235.86,178.23,232.1,183.76Z"/></svg>