<?xml version="1.0" encoding="utf-8"?>
<!-- Generator: Adobe Illustrator 25.2.1, SVG Export Plug-In . SVG Version: 6.00 Build 0)  -->
<svg version="1.1" id="Layer_1" xmlns="http://www.w3.org/2000/svg" xmlns:xlink="http://www.w3.org/1999/xlink" x="0px" y="0px"
	 viewBox="0 0 500 500" style="enable-background:new 0 0 500 500;" xml:space="preserve">
<style type="text/css">
	.st0{fill-rule:evenodd;clip-rule:evenodd;fill:#333333;}
	.st1{fill-rule:evenodd;clip-rule:evenodd;fill:#80BD01;}
	.st2{fill:#80BD01;}
</style>
<path class="st0" d="M81.3,250.3c0-1.4-0.8-2.7-2-3.5l-32.9-18.9c-0.6-0.3-1.2-0.5-1.8-0.5c-0.1,0-0.3,0-0.3,0
	c-0.6,0-1.3,0.2-1.8,0.5L9.6,246.8c-1.2,0.7-2,2-2,3.5l0.1,50.9c0,0.7,0.4,1.4,1,1.7c0.6,0.4,1.4,0.4,2,0l19.5-11.2
	c1.2-0.7,2-2,2-3.4v-23.8c0-1.4,0.8-2.7,2-3.4l8.3-4.8c0.6-0.4,1.3-0.5,2-0.5c0.7,0,1.4,0.2,2,0.5l8.3,4.8c1.2,0.7,2,2,2,3.4v23.8
	c0,1.4,0.8,2.7,2,3.4l19.5,11.2c0.6,0.4,1.4,0.4,2,0c0.6-0.3,1-1,1-1.7L81.3,250.3z"/>
<path class="st0" d="M256.8,180.2c-0.6-0.3-1.4-0.3-2,0c-0.6,0.4-1,1-1,1.7v50.5c0,0.5-0.3,1-0.7,1.2c-0.4,0.2-1,0.2-1.4,0l-8.2-4.7
	c-1.2-0.7-2.7-0.7-4,0l-32.9,19c-1.2,0.7-2,2-2,3.4v38c0,1.4,0.8,2.7,2,3.4l32.9,19c1.2,0.7,2.7,0.7,4,0l32.9-19c1.2-0.7,2-2,2-3.4
	v-94.6c0-1.4-0.8-2.8-2-3.5L256.8,180.2z M253.8,276.8c0,0.4-0.2,0.7-0.5,0.9l-11.3,6.5c-0.3,0.2-0.7,0.2-1,0l-11.3-6.5
	c-0.3-0.2-0.5-0.5-0.5-0.9v-13c0-0.4,0.2-0.7,0.5-0.9l11.3-6.5c0.3-0.2,0.7-0.2,1,0l11.3,6.5c0.3,0.2,0.5,0.5,0.5,0.9V276.8z"/>
<path class="st0" d="M374.5,263.4c1.2-0.7,2-2,2-3.4v-9.2c0-1.4-0.8-2.7-2-3.4l-32.7-19c-1.2-0.7-2.7-0.7-4,0l-32.9,19
	c-1.2,0.7-2,2-2,3.4v38c0,1.4,0.8,2.7,2,3.5l32.7,18.6c1.2,0.7,2.7,0.7,3.9,0l19.8-11c0.6-0.3,1-1,1-1.7c0-0.7-0.4-1.4-1-1.7
	l-33.1-19c-0.6-0.4-1-1-1-1.7v-11.9c0-0.7,0.4-1.4,1-1.7l10.3-5.9c0.6-0.4,1.4-0.4,2,0l10.3,5.9c0.6,0.4,1,1,1,1.7v9.4
	c0,0.7,0.4,1.4,1,1.7c0.6,0.4,1.4,0.4,2,0L374.5,263.4z"/>
<path class="st1" d="M141.1,228.2c1.2-0.7,2.7-0.7,4,0l32.9,19c1.2,0.7,2,2,2,3.4v38c0,1.4-0.8,2.7-2,3.4L145,311
	c-1.2,0.7-2.7,0.7-4,0l-32.9-19c-1.2-0.7-2-2-2-3.4v-38c0-1.4,0.8-2.7,2-3.4L141.1,228.2z"/>
<path class="st2" d="M438.3,311.5c-1.1,0-2.3-0.3-3.3-0.9l-10.4-6.1c-1.5-0.9-0.8-1.2-0.3-1.3c2.1-0.7,2.5-0.9,4.7-2.1
	c0.2-0.1,0.5-0.1,0.8,0.1l8,4.7c0.3,0.2,0.7,0.2,1,0l31-17.9c0.3-0.2,0.5-0.5,0.5-0.8v-35.8c0-0.4-0.2-0.7-0.5-0.9l-31-17.9
	c-0.3-0.2-0.7-0.2-1,0l-31,17.9c-0.3,0.2-0.5,0.5-0.5,0.8v35.8c0,0.3,0.2,0.7,0.5,0.8l8.5,4.9c4.6,2.3,7.4-0.4,7.4-3.1v-35.3
	c0-0.5,0.4-0.9,0.9-0.9h3.9c0.5,0,0.9,0.4,0.9,0.9v35.3c0,6.2-3.3,9.7-9.2,9.7c-1.8,0-3.2,0-7.1-1.9l-8.1-4.7
	c-2-1.2-3.3-3.3-3.3-5.7v-35.8c0-2.3,1.2-4.5,3.3-5.7l31-17.9c2-1.1,4.6-1.1,6.5,0l31,17.9c2,1.2,3.3,3.3,3.3,5.7v35.8
	c0,2.3-1.2,4.5-3.3,5.7l-31,17.9C440.6,311.3,439.5,311.5,438.3,311.5z"/>
<path class="st2" d="M447.9,286.9c-13.6,0-16.4-6.2-16.4-11.5c0-0.5,0.4-0.9,0.9-0.9h4c0.4,0,0.8,0.3,0.9,0.8
	c0.6,4.1,2.4,6.1,10.6,6.1c6.5,0,9.3-1.5,9.3-4.9c0-2-0.8-3.5-10.9-4.5c-8.5-0.8-13.7-2.7-13.7-9.5c0-6.3,5.3-10,14.1-10
	c9.9,0,14.8,3.4,15.5,10.8c0,0.3-0.1,0.5-0.2,0.7c-0.2,0.2-0.4,0.3-0.7,0.3h-4c-0.4,0-0.8-0.3-0.9-0.7c-1-4.3-3.3-5.7-9.7-5.7
	c-7.1,0-8,2.5-8,4.3c0,2.3,1,2.9,10.6,4.2c9.5,1.3,14.1,3,14.1,9.7C463.4,283,457.7,286.9,447.9,286.9z"/>
<path class="st1" d="M339.3,261.6c0.2-0.1,0.5-0.1,0.8,0l6.3,3.6c0.2,0.1,0.4,0.4,0.4,0.7v7.3c0,0.3-0.1,0.5-0.4,0.7l-6.3,3.6
	c-0.2,0.1-0.5,0.1-0.8,0l-6.3-3.6c-0.2-0.1-0.4-0.4-0.4-0.7v-7.3c0-0.3,0.1-0.5,0.4-0.7L339.3,261.6z"/>
<g>
	<path class="st2" d="M497.3,237.5c0,3.3-2.7,6-6,6c-3.3,0-6-2.7-6-6c0-3.4,2.8-6,6-6C494.6,231.5,497.3,234.1,497.3,237.5z
		 M486.3,237.4c0,2.8,2.2,5,5,5c2.8,0,5-2.3,5-5c0-2.8-2.3-5-5-5C488.6,232.4,486.3,234.6,486.3,237.4z M489.1,234.1h2.3
		c0.8,0,2.3,0,2.3,1.8c0,1.2-0.8,1.5-1.3,1.6c0.9,0.1,1,0.7,1.1,1.5c0.1,0.5,0.2,1.5,0.3,1.8h-1.4c0-0.3-0.3-2-0.3-2.1
		c-0.1-0.4-0.2-0.6-0.7-0.6h-1.2v2.7h-1.3V234.1z M490.4,237h1c0.9,0,1-0.6,1-0.9c0-0.9-0.6-0.9-1-0.9h-1.1V237z"/>
</g>
</svg>
