<svg id="Layer_1" data-name="Layer 1" xmlns="http://www.w3.org/2000/svg" viewBox="0 0 500 250"><defs><style>.cls-1{fill:#333;}.cls-1,.cls-2{fill-rule:evenodd;}.cls-2,.cls-3{fill:#80bd01;}</style></defs><path class="cls-1" d="M75.39,118.79a4.38,4.38,0,0,0-2-3.57L39.8,96A4.08,4.08,0,0,0,38,95.44h-.31a3.76,3.76,0,0,0-1.83.51L2.28,115.22a4.11,4.11,0,0,0-2,3.57l.1,51.91a2,2,0,0,0,1,1.73,1.85,1.85,0,0,0,2,0L23.28,161a4.06,4.06,0,0,0,2-3.47V133.27a4.07,4.07,0,0,1,2-3.46l8.47-4.9a3.55,3.55,0,0,1,2-.51,4.63,4.63,0,0,1,2,.51l8.46,4.9a4.07,4.07,0,0,1,2,3.46v24.27a4.08,4.08,0,0,0,2,3.47l19.89,11.42a1.85,1.85,0,0,0,2,0,2,2,0,0,0,1-1.73Z"/><path class="cls-1" d="M254.37,47.3a2.42,2.42,0,0,0-2,0,2.11,2.11,0,0,0-1,1.74v51.5a1.4,1.4,0,0,1-.72,1.22,1.68,1.68,0,0,1-1.42,0L240.8,97a4.1,4.1,0,0,0-4.07,0l-33.56,19.37a4.08,4.08,0,0,0-2,3.47v38.75a4.07,4.07,0,0,0,2,3.47l33.56,19.38a4.15,4.15,0,0,0,4.07,0L274.36,162a4.08,4.08,0,0,0,2-3.47V62.09a4.26,4.26,0,0,0-2-3.57Zm-3.06,98.52a1.08,1.08,0,0,1-.51.91l-11.52,6.63a.9.9,0,0,1-1,0l-11.53-6.63a1.08,1.08,0,0,1-.51-.91V132.56a1.09,1.09,0,0,1,.51-.92L238.26,125a.94.94,0,0,1,1,0l11.52,6.63a1.09,1.09,0,0,1,.51.92Z"/><path class="cls-1" d="M374.4,132.15a4.08,4.08,0,0,0,2-3.47V119.3a4.09,4.09,0,0,0-2-3.47L341.05,96.46a4.12,4.12,0,0,0-4.08,0l-33.55,19.37a4.09,4.09,0,0,0-2,3.47v38.75a4.38,4.38,0,0,0,2,3.57l33.35,19a3.92,3.92,0,0,0,4,0l20.2-11.22a2,2,0,0,0,0-3.46l-33.76-19.38a2.11,2.11,0,0,1-1-1.73V132.66a2,2,0,0,1,1-1.73l10.51-6a1.83,1.83,0,0,1,2,0l10.51,6a2.11,2.11,0,0,1,1,1.73v9.59a2,2,0,0,0,1,1.73,1.85,1.85,0,0,0,2,0Z"/><path class="cls-2" d="M136.38,96.25a4.17,4.17,0,0,1,4.08,0L174,115.63a4.08,4.08,0,0,1,2,3.47v38.75a4.09,4.09,0,0,1-2,3.47l-33.65,19.37a4.12,4.12,0,0,1-4.08,0l-33.55-19.37a4.07,4.07,0,0,1-2-3.47V119.1a4.06,4.06,0,0,1,2-3.47Z"/><path class="cls-3" d="M439.46,181.2a6.72,6.72,0,0,1-3.37-.91l-10.6-6.23c-1.53-.91-.82-1.22-.31-1.32a21.9,21.9,0,0,0,4.8-2.14.82.82,0,0,1,.81.1l8.16,4.79a.9.9,0,0,0,1,0l31.61-18.25a1,1,0,0,0,.51-.82V119.91a1.05,1.05,0,0,0-.51-.91L440,100.74a.94.94,0,0,0-1,0L407.34,119a1,1,0,0,0-.51.81v36.51a.91.91,0,0,0,.51.82l8.67,5c4.69,2.35,7.54-.4,7.54-3.16V123a.91.91,0,0,1,.92-.91h4a.9.9,0,0,1,.91.91v36c0,6.32-3.36,9.89-9.38,9.89-1.83,0-3.26,0-7.24-1.93l-8.26-4.8a6.75,6.75,0,0,1-3.36-5.81V119.81a6.67,6.67,0,0,1,3.36-5.81l31.61-18.26a7,7,0,0,1,6.63,0L474.34,114a6.75,6.75,0,0,1,3.36,5.81v36.51a6.66,6.66,0,0,1-3.36,5.81l-31.62,18.26A5.76,5.76,0,0,1,439.46,181.2Z"/><path class="cls-3" d="M449.25,156.12c-13.87,0-16.72-6.33-16.72-11.73a.91.91,0,0,1,.91-.92h4.08a1,1,0,0,1,.92.82c.61,4.18,2.45,6.22,10.81,6.22,6.63,0,9.48-1.53,9.48-5,0-2-.81-3.57-11.11-4.59-8.67-.81-14-2.75-14-9.69,0-6.42,5.4-10.19,14.38-10.19,10.09,0,15.09,3.46,15.8,11a1.45,1.45,0,0,1-.2.71.9.9,0,0,1-.71.31h-4.08a1,1,0,0,1-.92-.71c-1-4.39-3.37-5.82-9.89-5.82-7.24,0-8.16,2.55-8.16,4.39,0,2.34,1,2.95,10.81,4.28s14.38,3.06,14.38,9.89C465.06,152.14,459.24,156.12,449.25,156.12Z"/><path class="cls-2" d="M338.5,130.32a1.05,1.05,0,0,1,.82,0l6.42,3.67a.83.83,0,0,1,.41.71v7.45a.76.76,0,0,1-.41.71l-6.42,3.67a1.15,1.15,0,0,1-.82,0l-6.42-3.67a.85.85,0,0,1-.41-.71V134.7a.75.75,0,0,1,.41-.71Z"/><path class="cls-3" d="M499.63,105.74a6.12,6.12,0,1,1-6.12-6.12A6.08,6.08,0,0,1,499.63,105.74Zm-11.22-.1a5.05,5.05,0,0,0,5.1,5.1,5.1,5.1,0,1,0-5.1-5.1Zm2.86-3.37h2.34c.82,0,2.35,0,2.35,1.84a1.51,1.51,0,0,1-1.33,1.63c.92.1,1,.71,1.12,1.53.1.51.21,1.53.31,1.83h-1.43c0-.3-.3-2-.3-2.14-.11-.41-.21-.61-.72-.61h-1.22v2.75h-1.33v-6.83Zm1.32,3h1c.92,0,1-.61,1-.92,0-.92-.61-.92-1-.92h-1.12v1.84Z"/></svg>