<svg id="Layer_1" data-name="Layer 1" xmlns="http://www.w3.org/2000/svg" xmlns:xlink="http://www.w3.org/1999/xlink" viewBox="0 0 500 250"><defs><style>.cls-1{fill:#646464;}.cls-2{fill:url(#Degradado_sin_nombre);}.cls-3{fill:url(#Degradado_sin_nombre_2);}.cls-4{opacity:0.44;isolation:isolate;fill:url(#Degradado_sin_nombre_3);}</style><linearGradient id="Degradado_sin_nombre" x1="1098.32" y1="1343.44" x2="1212.56" y2="1441.73" gradientTransform="translate(-618.58 -688.59) scale(0.56 0.57)" gradientUnits="userSpaceOnUse"><stop offset="0" stop-color="#5a9fd4"/><stop offset="1" stop-color="#306998"/></linearGradient><linearGradient id="Degradado_sin_nombre_2" x1="1256.54" y1="1501.39" x2="1215.75" y2="1443.67" gradientTransform="translate(-618.58 -688.59) scale(0.56 0.57)" gradientUnits="userSpaceOnUse"><stop offset="0" stop-color="#ffd43b"/><stop offset="1" stop-color="#ffe873"/></linearGradient><radialGradient id="Degradado_sin_nombre_3" cx="-4934.12" cy="1194.66" r="29.03" gradientTransform="translate(-1259.84 -1035.42) rotate(-90) scale(0.25 1.11)" gradientUnits="userSpaceOnUse"><stop offset="0" stop-color="#b8b8b8" stop-opacity="0.5"/><stop offset="1" stop-color="#7f7f7f" stop-opacity="0"/></radialGradient></defs><g id="g2303"><path id="path46" class="cls-1" d="M189.6,129.41c0-15.3-4.4-23.1-13.1-23.5a23.4,23.4,0,0,0-10.1,1.7,14.71,14.71,0,0,0-5.3,2.8v36.4c5.6,3.5,10.5,5.1,14.8,4.9C185.1,151,189.6,143.61,189.6,129.41Zm10.8.6c0,7.8-1.8,14.2-5.5,19.3a20,20,0,0,1-16.9,8.9c-5.4.2-11.1-1.5-16.8-5.1v33.1l-9.3-3.3v-73.5a20.58,20.58,0,0,1,5.9-4.9c5.6-3.2,12.3-4.9,20.3-5l.1.1a18.56,18.56,0,0,1,16.8,8.9C198.5,114.21,200.4,121.31,200.4,130Z"/><path id="path48" class="cls-1" d="M257.4,151.71c0,10.4-1,17.6-3.1,21.6s-6.1,7.2-12,9.6a46,46,0,0,1-15.5,3.1l-1.5-5.9c5.6-.8,9.6-1.5,11.9-2.3,4.5-1.5,7.6-3.9,9.3-7,1.4-2.6,2-7.5,2-14.7v-2.4a48.11,48.11,0,0,1-20.1,4.3,18.12,18.12,0,0,1-12.1-4.3,15,15,0,0,1-5.9-12v-38.9l9.3-3.2v39.1c0,4.2,1.3,7.4,4,9.7s6.2,3.3,10.5,3.3,8.9-1.7,13.7-5v-45.6h9.3v50.6Z"/><path id="path50" class="cls-1" d="M293.9,157.71c-1.1.1-2.1.1-3.1.1-5.3,0-9.4-1.3-12.3-3.8a13.08,13.08,0,0,1-4.4-10.4v-36.8h-6.4v-5.9h6.4V85.31l9.3-3.3v18.9h10.5v5.9H283.4v36.5c0,3.5.9,6,2.8,7.4,1.6,1.2,4.2,1.9,7.7,2.1Z"/><path id="path52" class="cls-1" d="M350.4,157H341V121a17.32,17.32,0,0,0-2.6-9.5,9.33,9.33,0,0,0-8.2-4.5c-4.3,0-9.6,2.3-16.1,6.8V157h-9.3V70.91l9.3-2.9v39.1a32.93,32.93,0,0,1,19.6-6.5,15.76,15.76,0,0,1,12,5,17.48,17.48,0,0,1,4.6,12.4v39Z"/><path id="path54" class="cls-1" d="M400,127.91c0-5.9-1.1-10.7-3.3-14.5-2.6-4.7-6.7-7.1-12.3-7.4-10.2.6-15.3,7.9-15.3,22,0,6.4,1.1,11.8,3.2,16.1q4.05,8.25,12.3,8.1C394.9,152.21,400,144.11,400,127.91Zm10.2.1c0,8.3-2.1,15.3-6.4,20.8-4.7,6.2-11.2,9.3-19.4,9.3s-14.6-3.1-19.2-9.3c-4.2-5.5-6.3-12.5-6.3-20.8,0-7.8,2.3-14.4,6.8-19.8a25,25,0,0,1,37.7,0C408,113.51,410.2,120.11,410.2,128Z"/><path id="path56" class="cls-1" d="M463.7,157h-9.3v-38.1c0-4.2-1.3-7.4-3.8-9.8a13.83,13.83,0,0,0-10-3.4,22.8,22.8,0,0,0-12.7,4.3v46.9h-9.3v-48.1c5.4-3.9,10.3-6.5,14.8-7.7a46.27,46.27,0,0,1,11.3-1.7,32.07,32.07,0,0,1,6.3.6,17.4,17.4,0,0,1,8.9,4.7,12.38,12.38,0,0,1,3.8,9.2V157Z"/><path id="path1948" class="cls-2" d="M59.6,71.21a79,79,0,0,0-13.4,1.1c-11.9,2.1-14,6.5-14,14.6v10.7H60.3v3.6H21.6c-8.2,0-15.3,4.9-17.6,14.2-2.6,10.7-2.7,17.4,0,28.6,2,8.3,6.8,14.2,14.9,14.2h9.7v-12.8a17.87,17.87,0,0,1,17.6-17.5H74.3a14.11,14.11,0,0,0,14-14.3V86.81c0-7.6-6.4-13.3-14-14.6A104.76,104.76,0,0,0,59.6,71.21Zm-15.2,8.6a5.36,5.36,0,0,1,5.3,5.4,5.27,5.27,0,0,1-5.3,5.3,5.35,5.35,0,0,1,0-10.7Z"/><path id="path1950" class="cls-3" d="M91.8,101.21v12.5a18,18,0,0,1-17.6,17.8H46.1a14.3,14.3,0,0,0-14,14.3v26.8c0,7.6,6.6,12.1,14,14.3a47.14,47.14,0,0,0,28.1,0c7.1-2,14-6.2,14-14.3v-10.7h-28v-3.6h42.1c8.2,0,11.2-5.7,14-14.2,2.9-8.8,2.8-17.3,0-28.6-2-8.1-5.9-14.2-14-14.2H91.8ZM76,169a5.35,5.35,0,1,1-5.3,5.3A5.34,5.34,0,0,1,76,169Z"/><path id="text3004" class="cls-1" d="M481.9,92.71h1.6V82.41h3.9v-1.2H478v1.2h3.9v10.3m7,0h1.4v-9.4l3,9.4h1.6l3.2-9.3v9.3h1.5V81.21h-2L494.1,91l-2.9-9.8h-2.3v11.5"/><path id="path1894" class="cls-4" d="M98.2,205c0,4-16.9,7.3-37.7,7.3S22.8,209,22.8,205s16.9-7.3,37.7-7.3S98.2,201,98.2,205Z"/></g></svg>