<?xml version="1.0" encoding="utf-8"?>
<!-- Generator: Adobe Illustrator 25.2.1, SVG Export Plug-In . SVG Version: 6.00 Build 0)  -->
<svg version="1.1" id="Layer_1" xmlns="http://www.w3.org/2000/svg" xmlns:xlink="http://www.w3.org/1999/xlink" x="0px" y="0px"
	 viewBox="0 0 500 500" style="enable-background:new 0 0 500 500;" xml:space="preserve">
<style type="text/css">
	.st0{fill:#646464;}
	.st1{fill:url(#path1948_1_);}
	.st2{fill:url(#path1950_1_);}
	.st3{opacity:0.4438;fill:url(#path1894_1_);enable-background:new    ;}
</style>
<g id="g2303">
	<path id="path46" class="st0" d="M189.6,240.3c0-15.3-4.4-23.1-13.1-23.5c-3.5-0.2-6.8,0.4-10.1,1.7c-2.6,0.9-4.4,1.9-5.3,2.8v36.4
		c5.6,3.5,10.5,5.1,14.8,4.9C185.1,261.9,189.6,254.5,189.6,240.3z M200.4,240.9c0,7.8-1.8,14.2-5.5,19.3c-4.1,5.8-9.7,8.8-16.9,8.9
		c-5.4,0.2-11.1-1.5-16.8-5.1v33.1l-9.3-3.3v-73.5c1.5-1.9,3.5-3.5,5.9-4.9c5.6-3.2,12.3-4.9,20.3-5l0.1,0.1
		c7.3-0.1,12.9,2.9,16.8,8.9C198.5,225.1,200.4,232.2,200.4,240.9z"/>
	<path id="path48" class="st0" d="M257.4,262.6c0,10.4-1,17.6-3.1,21.6c-2.1,4-6.1,7.2-12,9.6c-4.8,1.9-9.9,2.9-15.5,3.1l-1.5-5.9
		c5.6-0.8,9.6-1.5,11.9-2.3c4.5-1.5,7.6-3.9,9.3-7c1.4-2.6,2-7.5,2-14.7v-2.4c-6.4,2.9-13.1,4.3-20.1,4.3c-4.6,0-8.7-1.4-12.1-4.3
		c-3.9-3.2-5.9-7.2-5.9-12v-38.9l9.3-3.2v39.1c0,4.2,1.3,7.4,4,9.7c2.7,2.3,6.2,3.3,10.5,3.3c4.3-0.1,8.9-1.7,13.7-5v-45.6h9.3
		V262.6z"/>
	<path id="path50" class="st0" d="M293.9,268.6c-1.1,0.1-2.1,0.1-3.1,0.1c-5.3,0-9.4-1.3-12.3-3.8c-2.9-2.5-4.4-6-4.4-10.4v-36.8
		h-6.4v-5.9h6.4v-15.6l9.3-3.3v18.9h10.5v5.9h-10.5v36.5c0,3.5,0.9,6,2.8,7.4c1.6,1.2,4.2,1.9,7.7,2.1V268.6z"/>
	<path id="path52" class="st0" d="M350.4,267.9H341v-36c0-3.7-0.9-6.8-2.6-9.5c-2-3-4.7-4.5-8.2-4.5c-4.3,0-9.6,2.3-16.1,6.8v43.2
		h-9.3v-86.1l9.3-2.9V218c6-4.3,12.5-6.5,19.6-6.5c4.9,0,8.9,1.7,12,5c3.1,3.3,4.6,7.5,4.6,12.4V267.9L350.4,267.9z"/>
	<path id="path54" class="st0" d="M400,238.8c0-5.9-1.1-10.7-3.3-14.5c-2.6-4.7-6.7-7.1-12.3-7.4c-10.2,0.6-15.3,7.9-15.3,22
		c0,6.4,1.1,11.8,3.2,16.1c2.7,5.5,6.8,8.2,12.3,8.1C394.9,263.1,400,255,400,238.8z M410.2,238.9c0,8.3-2.1,15.3-6.4,20.8
		c-4.7,6.2-11.2,9.3-19.4,9.3c-8.2,0-14.6-3.1-19.2-9.3c-4.2-5.5-6.3-12.5-6.3-20.8c0-7.8,2.3-14.4,6.8-19.8
		c4.8-5.7,11-8.6,18.8-8.6c7.8,0,14.1,2.9,18.9,8.6C408,224.4,410.2,231,410.2,238.9z"/>
	<path id="path56" class="st0" d="M463.7,267.9h-9.3v-38.1c0-4.2-1.3-7.4-3.8-9.8c-2.5-2.3-5.9-3.5-10-3.4
		c-4.4,0.1-8.7,1.5-12.7,4.3v46.9h-9.3v-48.1c5.4-3.9,10.3-6.5,14.8-7.7c4.3-1.1,8-1.7,11.3-1.7c2.2,0,4.3,0.2,6.3,0.6
		c3.7,0.8,6.6,2.4,8.9,4.7c2.6,2.6,3.8,5.6,3.8,9.2V267.9z"/>
	
		<linearGradient id="path1948_1_" gradientUnits="userSpaceOnUse" x1="103.6321" y1="114.8115" x2="217.8761" y2="16.5198" gradientTransform="matrix(0.5625 0 0 -0.568 -59.1245 250.6455)">
		<stop  offset="0" style="stop-color:#5A9FD4"/>
		<stop  offset="1" style="stop-color:#306998"/>
	</linearGradient>
	<path id="path1948" class="st1" d="M59.6,182.1c-4.8,0-9.4,0.4-13.4,1.1c-11.9,2.1-14,6.5-14,14.6v10.7h28.1v3.6H32.1H21.6
		c-8.2,0-15.3,4.9-17.6,14.2c-2.6,10.7-2.7,17.4,0,28.6c2,8.3,6.8,14.2,14.9,14.2h9.7v-12.8c0-9.3,8-17.5,17.6-17.5h28.1
		c7.8,0,14-6.4,14-14.3v-26.8c0-7.6-6.4-13.3-14-14.6C69.4,182.4,64.4,182.1,59.6,182.1z M44.4,190.7c2.9,0,5.3,2.4,5.3,5.4
		c0,3-2.4,5.3-5.3,5.3c-2.9,0-5.3-2.4-5.3-5.3C39.1,193.1,41.5,190.7,44.4,190.7z"/>
	
		<linearGradient id="path1950_1_" gradientUnits="userSpaceOnUse" x1="262.0408" y1="-42.9607" x2="221.2464" y2="14.7562" gradientTransform="matrix(0.5625 0 0 -0.568 -59.1245 250.6455)">
		<stop  offset="0" style="stop-color:#FFD43B"/>
		<stop  offset="1" style="stop-color:#FFE873"/>
	</linearGradient>
	<path id="path1950" class="st2" d="M91.8,212.1v12.5c0,9.7-8.2,17.8-17.6,17.8H46.1c-7.7,0-14,6.6-14,14.3v26.8
		c0,7.6,6.6,12.1,14,14.3c8.9,2.6,17.4,3.1,28.1,0c7.1-2,14-6.2,14-14.3v-10.7H60.2v-3.6h28.1h14c8.2,0,11.2-5.7,14-14.2
		c2.9-8.8,2.8-17.3,0-28.6c-2-8.1-5.9-14.2-14-14.2H91.8z M76,279.9c2.9,0,5.3,2.4,5.3,5.3c0,3-2.4,5.4-5.3,5.4
		c-2.9,0-5.3-2.4-5.3-5.4C70.7,282.3,73.1,279.9,76,279.9z"/>
	<path id="text3004" class="st0" d="M481.9,203.6h1.6v-10.3h3.9v-1.2H478v1.2h3.9V203.6 M488.9,203.6h1.4v-9.4l3,9.4h1.6l3.2-9.3
		v9.3h1.5v-11.5h-2l-3.5,9.8l-2.9-9.8h-2.3V203.6"/>
	
		<radialGradient id="path1894_1_" cx="-1096.6388" cy="288.2054" r="29.0375" gradientTransform="matrix(0 -0.2514 -1.1052 0 379.0449 40.215)" gradientUnits="userSpaceOnUse">
		<stop  offset="0" style="stop-color:#B8B8B8;stop-opacity:0.498"/>
		<stop  offset="1" style="stop-color:#7F7F7F;stop-opacity:0"/>
	</radialGradient>
	<path id="path1894" class="st3" d="M98.2,315.9c0,4-16.9,7.3-37.7,7.3c-20.8,0-37.7-3.3-37.7-7.3c0-4,16.9-7.3,37.7-7.3
		C81.3,308.6,98.2,311.9,98.2,315.9L98.2,315.9z"/>
</g>
</svg>
