<?xml version="1.0" encoding="utf-8"?>
<!-- Generator: Adobe Illustrator 25.4.1, SVG Export Plug-In . SVG Version: 6.00 Build 0)  -->
<svg version="1.1" id="Capa_1" xmlns="http://www.w3.org/2000/svg" xmlns:xlink="http://www.w3.org/1999/xlink" x="0px" y="0px"
	 viewBox="0 0 750 152.55" style="enable-background:new 0 0 750 152.55;" xml:space="preserve">
<style type="text/css">
	.st0{fill:#FFFFFF;}
	.st1{font-family:'HemiHeadRg-BoldItalic';}
	.st2{font-size:151.5673px;}
</style>
<g>
	<text transform="matrix(0.979 0 0.2038 0.979 0.801 127.7156)" class="st0 st1 st2">EINABIT</text>
	<g>
		<g>
			<path class="st0" d="M637.29,129.41c-0.88,0-1.68-0.51-2.04-1.32l-22.4-49.58H578.4v-4.49h35.9c0.88,0,1.68,0.52,2.04,1.32
				l20.67,45.76l28.72-83c0.31-0.9,1.16-1.51,2.12-1.51c0,0,0.01,0,0.01,0c0.96,0.01,1.81,0.62,2.12,1.53l11.97,35.9h41.71v4.49
				h-43.33c-0.97,0-1.82-0.62-2.13-1.53l-10.39-31.16l-28.41,82.09c-0.3,0.87-1.1,1.47-2.02,1.51
				C637.36,129.41,637.33,129.41,637.29,129.41z"/>
		</g>
		<path class="st0" d="M736.63,73.77l-40.2-69.63c-0.8-1.39-2.29-2.25-3.9-2.25h-80.4c-1.61,0-3.1,0.86-3.9,2.25l-40.2,69.63
			c-0.81,1.39-0.81,3.11,0,4.51l40.2,69.63c0.8,1.39,2.29,2.25,3.9,2.25h80.4c1.61,0,3.1-0.86,3.9-2.25l40.2-69.63
			C737.43,76.88,737.43,75.16,736.63,73.77z M721.21,78.27l-32.49,56.27c-0.8,1.39-2.29,2.25-3.9,2.25h-64.98
			c-1.61,0-3.1-0.86-3.9-2.25l-32.49-56.27c-0.81-1.39-0.81-3.11,0-4.51l32.49-56.27c0.8-1.39,2.29-2.25,3.9-2.25h64.98
			c1.61,0,3.1,0.86,3.9,2.25l32.49,56.27C722.01,75.16,722.01,76.88,721.21,78.27z"/>
	</g>
</g>
</svg>
