<?xml version="1.0" encoding="utf-8"?>
<!-- Generator: Adobe Illustrator 25.4.1, SVG Export Plug-In . SVG Version: 6.00 Build 0)  -->
<svg version="1.1" id="Capa_1" xmlns="http://www.w3.org/2000/svg" xmlns:xlink="http://www.w3.org/1999/xlink" x="0px" y="0px"
	 viewBox="0 0 750 152.55" style="enable-background:new 0 0 750 152.55;" xml:space="preserve">
<style type="text/css">
	.st0{fill:#FF9A00;}
	.st1{font-family:'HemiHeadRg-BoldItalic';}
	.st2{font-size:151.5673px;}
	.st3{fill:url(#SVGID_1_);}
	.st4{fill:url(#SVGID_00000090293256966461578550000014999013159688066204_);}
</style>
<g>
	<text transform="matrix(0.979 0 0.2038 0.979 0.7954 127.6885)" class="st0 st1 st2">EINABIT</text>
	<g>
		<g>
			<linearGradient id="SVGID_1_" gradientUnits="userSpaceOnUse" x1="613.5964" y1="38.8273" x2="688.4716" y2="113.7025">
				<stop  offset="0" style="stop-color:#EDEDED"/>
				<stop  offset="0.0112" style="stop-color:#EEE9E1"/>
				<stop  offset="0.0661" style="stop-color:#F4D6A9"/>
				<stop  offset="0.1169" style="stop-color:#F9C77C"/>
				<stop  offset="0.1622" style="stop-color:#FCBD5C"/>
				<stop  offset="0.2001" style="stop-color:#FEB649"/>
				<stop  offset="0.2263" style="stop-color:#FFB442"/>
				<stop  offset="0.2433" style="stop-color:#FFB13B"/>
				<stop  offset="0.3098" style="stop-color:#FFA925"/>
				<stop  offset="0.3884" style="stop-color:#FFA214"/>
				<stop  offset="0.4855" style="stop-color:#FF9D09"/>
				<stop  offset="0.6217" style="stop-color:#FF9B02"/>
				<stop  offset="1" style="stop-color:#FF9A00"/>
			</linearGradient>
			<path class="st3" d="M637.29,129.41c-0.88,0-1.68-0.51-2.04-1.32l-22.4-49.58H578.4v-4.49h35.9c0.88,0,1.68,0.52,2.04,1.32
				l20.67,45.76l28.72-83c0.31-0.9,1.16-1.51,2.12-1.51c0,0,0.01,0,0.01,0c0.96,0.01,1.81,0.62,2.12,1.53l11.97,35.9h41.71v4.49
				h-43.33c-0.97,0-1.82-0.62-2.13-1.53l-10.39-31.16l-28.41,82.09c-0.3,0.87-1.1,1.47-2.02,1.51
				C637.36,129.41,637.33,129.41,637.29,129.41z"/>
		</g>
		
			<linearGradient id="SVGID_00000078034160700738627370000011870796098008351654_" gradientUnits="userSpaceOnUse" x1="609.8674" y1="2.4841" x2="694.778" y2="149.5536">
			<stop  offset="0" style="stop-color:#EDEDED"/>
			<stop  offset="0" style="stop-color:#EEEAE4"/>
			<stop  offset="0" style="stop-color:#F3D2A0"/>
			<stop  offset="0" style="stop-color:#F7BE67"/>
			<stop  offset="0" style="stop-color:#FBAE3A"/>
			<stop  offset="0" style="stop-color:#FDA31A"/>
			<stop  offset="0" style="stop-color:#FE9C07"/>
			<stop  offset="0" style="stop-color:#FF9A00"/>
			<stop  offset="0.152" style="stop-color:#FFA217"/>
			<stop  offset="0.3808" style="stop-color:#FFAD36"/>
			<stop  offset="0.3896" style="stop-color:#FFB243"/>
			<stop  offset="0.4131" style="stop-color:#FFBD5F"/>
			<stop  offset="0.4383" style="stop-color:#FFC576"/>
			<stop  offset="0.4656" style="stop-color:#FFCB86"/>
			<stop  offset="0.4965" style="stop-color:#FFCF8F"/>
			<stop  offset="0.5391" style="stop-color:#FFD092"/>
			<stop  offset="0.5698" style="stop-color:#FCC172"/>
			<stop  offset="0.6039" style="stop-color:#FAB456"/>
			<stop  offset="0.6428" style="stop-color:#F8AA40"/>
			<stop  offset="0.6876" style="stop-color:#F6A22E"/>
			<stop  offset="0.742" style="stop-color:#F59C22"/>
			<stop  offset="0.8162" style="stop-color:#F4991B"/>
			<stop  offset="1" style="stop-color:#F49819"/>
		</linearGradient>
		<path style="fill:url(#SVGID_00000078034160700738627370000011870796098008351654_);" d="M736.63,73.77l-40.2-69.63
			c-0.8-1.39-2.29-2.25-3.9-2.25h-80.4c-1.61,0-3.1,0.86-3.9,2.25l-40.2,69.63c-0.81,1.39-0.81,3.11,0,4.51l40.2,69.63
			c0.8,1.39,2.29,2.25,3.9,2.25h80.4c1.61,0,3.1-0.86,3.9-2.25l40.2-69.63C737.43,76.88,737.43,75.16,736.63,73.77z M721.21,78.27
			l-32.49,56.27c-0.8,1.39-2.29,2.25-3.9,2.25h-64.98c-1.61,0-3.1-0.86-3.9-2.25l-32.49-56.27c-0.81-1.39-0.81-3.11,0-4.51
			l32.49-56.27c0.8-1.39,2.29-2.25,3.9-2.25h64.98c1.61,0,3.1,0.86,3.9,2.25l32.49,56.27C722.01,75.16,722.01,76.88,721.21,78.27z"
			/>
	</g>
</g>
</svg>
