<?xml version="1.0" encoding="utf-8"?>
<!-- Generator: Adobe Illustrator 25.4.1, SVG Export Plug-In . SVG Version: 6.00 Build 0)  -->
<svg version="1.1" id="Capa_1" xmlns="http://www.w3.org/2000/svg" xmlns:xlink="http://www.w3.org/1999/xlink" x="0px" y="0px"
	 viewBox="0 0 500 500" style="enable-background:new 0 0 500 500;" xml:space="preserve">
<style type="text/css">
	.st0{fill:url(#SVGID_1_);}
	.st1{fill:url(#SVGID_00000072966748713703782340000017991370819607267721_);}
</style>
<g>
	<g>
		<linearGradient id="SVGID_1_" gradientUnits="userSpaceOnUse" x1="140.1608" y1="144.5138" x2="352.5291" y2="356.882">
			<stop  offset="0" style="stop-color:#EDEDED"/>
			<stop  offset="0.0169" style="stop-color:#DADADA"/>
			<stop  offset="0.0703" style="stop-color:#A2A2A2"/>
			<stop  offset="0.1198" style="stop-color:#767675"/>
			<stop  offset="0.1639" style="stop-color:#565655"/>
			<stop  offset="0.2008" style="stop-color:#434342"/>
			<stop  offset="0.2263" style="stop-color:#3C3C3B"/>
			<stop  offset="0.293" style="stop-color:#31312F"/>
			<stop  offset="0.4049" style="stop-color:#252524"/>
			<stop  offset="0.5625" style="stop-color:#1F1F1D"/>
			<stop  offset="1" style="stop-color:#1D1D1B"/>
		</linearGradient>
		<path class="st0" d="M207.37,401.42c-2.49,0-4.76-1.46-5.8-3.74l-63.53-140.62h-97.7v-12.73h101.81c2.5,0,4.77,1.46,5.8,3.74
			l58.64,129.79l81.47-235.41c0.89-2.56,3.3-4.28,6.01-4.28c0.01,0,0.02,0,0.04,0c2.73,0.02,5.14,1.76,6,4.35l33.94,101.81h118.3
			v12.73H329.46c-2.74,0-5.17-1.75-6.04-4.35l-29.47-88.39l-80.57,232.82c-0.85,2.46-3.12,4.16-5.72,4.28
			C207.56,401.42,207.47,401.42,207.37,401.42z"/>
	</g>
	
		<linearGradient id="SVGID_00000103980192716462469630000003785022678538254732_" gradientUnits="userSpaceOnUse" x1="129.5844" y1="41.4337" x2="370.416" y2="458.5663">
		<stop  offset="0" style="stop-color:#EDEDED"/>
		<stop  offset="0" style="stop-color:#E4E4E4"/>
		<stop  offset="0" style="stop-color:#A0A0A0"/>
		<stop  offset="0" style="stop-color:#676767"/>
		<stop  offset="0" style="stop-color:#3A3A3A"/>
		<stop  offset="0" style="stop-color:#1A1A1A"/>
		<stop  offset="0" style="stop-color:#070707"/>
		<stop  offset="0" style="stop-color:#000000"/>
		<stop  offset="0.1398" style="stop-color:#020202"/>
		<stop  offset="0.2216" style="stop-color:#0B0B0B"/>
		<stop  offset="0.2885" style="stop-color:#191919"/>
		<stop  offset="0.3474" style="stop-color:#2D2D2D"/>
		<stop  offset="0.401" style="stop-color:#474746"/>
		<stop  offset="0.4508" style="stop-color:#676766"/>
		<stop  offset="0.4967" style="stop-color:#8C8C8B"/>
		<stop  offset="0.5149" style="stop-color:#9D9D9C"/>
		<stop  offset="0.5573" style="stop-color:#7F7F7F"/>
		<stop  offset="0.6225" style="stop-color:#595958"/>
		<stop  offset="0.6902" style="stop-color:#393938"/>
		<stop  offset="0.7599" style="stop-color:#20201F"/>
		<stop  offset="0.8325" style="stop-color:#0E0E0E"/>
		<stop  offset="0.9098" style="stop-color:#030303"/>
		<stop  offset="1" style="stop-color:#000000"/>
	</linearGradient>
	<path style="fill:url(#SVGID_00000103980192716462469630000003785022678538254732_);" d="M489.12,243.61L375.09,46.11
		c-2.28-3.95-6.5-6.39-11.07-6.39H135.98c-4.57,0-8.79,2.44-11.07,6.39L10.88,243.61c-2.28,3.95-2.28,8.83,0,12.78l114.02,197.5
		c2.28,3.95,6.5,6.39,11.07,6.39h228.05c4.57,0,8.79-2.44,11.07-6.39l114.02-197.5C491.4,252.44,491.4,247.56,489.12,243.61z
		 M445.37,256.39L353.22,416c-2.28,3.95-6.5,6.39-11.07,6.39h-184.3c-4.57,0-8.79-2.44-11.07-6.39L54.63,256.39
		c-2.28-3.95-2.28-8.83,0-12.78L146.78,84c2.28-3.95,6.5-6.39,11.07-6.39h184.3c4.57,0,8.79,2.44,11.07,6.39l92.15,159.61
		C447.66,247.56,447.66,252.44,445.37,256.39z"/>
</g>
</svg>
