<?xml version="1.0" encoding="utf-8"?>
<!-- Generator: Adobe Illustrator 25.4.1, SVG Export Plug-In . SVG Version: 6.00 Build 0)  -->
<svg version="1.1" id="Capa_1" xmlns="http://www.w3.org/2000/svg" xmlns:xlink="http://www.w3.org/1999/xlink" x="0px" y="0px"
	 viewBox="0 0 500 500" style="enable-background:new 0 0 500 500;" xml:space="preserve">
<style type="text/css">
	.st0{fill:url(#SVGID_1_);}
	.st1{fill:url(#SVGID_00000120527912808379460380000005107641082027496887_);}
</style>
<g>
	<g>
		<linearGradient id="SVGID_1_" gradientUnits="userSpaceOnUse" x1="140.0461" y1="144.6531" x2="352.4143" y2="357.0214">
			<stop  offset="0" style="stop-color:#EDEDED"/>
			<stop  offset="0.0112" style="stop-color:#EEE9E1"/>
			<stop  offset="0.0661" style="stop-color:#F4D6A9"/>
			<stop  offset="0.1169" style="stop-color:#F9C77C"/>
			<stop  offset="0.1622" style="stop-color:#FCBD5C"/>
			<stop  offset="0.2001" style="stop-color:#FEB649"/>
			<stop  offset="0.2263" style="stop-color:#FFB442"/>
			<stop  offset="0.2433" style="stop-color:#FFB13B"/>
			<stop  offset="0.3098" style="stop-color:#FFA925"/>
			<stop  offset="0.3884" style="stop-color:#FFA214"/>
			<stop  offset="0.4855" style="stop-color:#FF9D09"/>
			<stop  offset="0.6217" style="stop-color:#FF9B02"/>
			<stop  offset="1" style="stop-color:#FF9A00"/>
		</linearGradient>
		<path class="st0" d="M207.25,401.56c-2.49,0-4.76-1.46-5.8-3.74L137.93,257.2h-97.7v-12.73h101.81c2.5,0,4.77,1.46,5.8,3.74
			l58.64,129.79l81.47-235.41c0.89-2.56,3.3-4.28,6.01-4.28c0.01,0,0.02,0,0.04,0c2.73,0.02,5.14,1.76,6,4.35l33.94,101.81h118.3
			v12.73H329.35c-2.74,0-5.17-1.75-6.04-4.35l-29.47-88.39l-80.57,232.82c-0.85,2.46-3.12,4.16-5.72,4.28
			C207.45,401.56,207.35,401.56,207.25,401.56z"/>
	</g>
	
		<linearGradient id="SVGID_00000008134667679696701260000014298441111227395255_" gradientUnits="userSpaceOnUse" x1="129.4696" y1="41.5731" x2="370.3012" y2="458.7056">
		<stop  offset="0" style="stop-color:#EDEDED"/>
		<stop  offset="0" style="stop-color:#EEEAE4"/>
		<stop  offset="0" style="stop-color:#F3D2A0"/>
		<stop  offset="0" style="stop-color:#F7BE67"/>
		<stop  offset="0" style="stop-color:#FBAE3A"/>
		<stop  offset="0" style="stop-color:#FDA31A"/>
		<stop  offset="0" style="stop-color:#FE9C07"/>
		<stop  offset="0" style="stop-color:#FF9A00"/>
		<stop  offset="0.152" style="stop-color:#FFA217"/>
		<stop  offset="0.3808" style="stop-color:#FFAD36"/>
		<stop  offset="0.3896" style="stop-color:#FFB243"/>
		<stop  offset="0.4131" style="stop-color:#FFBD5F"/>
		<stop  offset="0.4383" style="stop-color:#FFC576"/>
		<stop  offset="0.4656" style="stop-color:#FFCB86"/>
		<stop  offset="0.4965" style="stop-color:#FFCF8F"/>
		<stop  offset="0.5391" style="stop-color:#FFD092"/>
		<stop  offset="0.5698" style="stop-color:#FCC172"/>
		<stop  offset="0.6039" style="stop-color:#FAB456"/>
		<stop  offset="0.6428" style="stop-color:#F8AA40"/>
		<stop  offset="0.6876" style="stop-color:#F6A22E"/>
		<stop  offset="0.742" style="stop-color:#F59C22"/>
		<stop  offset="0.8162" style="stop-color:#F4991B"/>
		<stop  offset="1" style="stop-color:#F49819"/>
	</linearGradient>
	<path style="fill:url(#SVGID_00000008134667679696701260000014298441111227395255_);" d="M489,243.75L374.98,46.25
		c-2.28-3.95-6.5-6.39-11.07-6.39H135.86c-4.57,0-8.79,2.44-11.07,6.39L10.77,243.75c-2.28,3.95-2.28,8.83,0,12.78l114.02,197.5
		c2.28,3.95,6.5,6.39,11.07,6.39h228.05c4.57,0,8.79-2.44,11.07-6.39L489,256.53C491.29,252.58,491.29,247.7,489,243.75z
		 M445.26,256.53l-92.15,159.61c-2.28,3.95-6.5,6.39-11.07,6.39h-184.3c-4.57,0-8.79-2.44-11.07-6.39L54.51,256.53
		c-2.28-3.95-2.28-8.83,0-12.78l92.15-159.61c2.28-3.95,6.5-6.39,11.07-6.39h184.3c4.57,0,8.79,2.44,11.07,6.39l92.15,159.61
		C447.54,247.7,447.54,252.58,445.26,256.53z"/>
</g>
</svg>
