<?xml version="1.0" encoding="utf-8"?>
<!-- Generator: Adobe Illustrator 25.4.1, SVG Export Plug-In . SVG Version: 6.00 Build 0)  -->
<svg version="1.1" id="Capa_1" xmlns="http://www.w3.org/2000/svg" xmlns:xlink="http://www.w3.org/1999/xlink" x="0px" y="0px"
	 viewBox="0 0 500 500" style="enable-background:new 0 0 500 500;" xml:space="preserve">
<style type="text/css">
	.st0{fill:#FFFFFF;}
</style>
<g>
	<g>
		<path class="st0" d="M207.37,401.42c-2.49,0-4.76-1.46-5.8-3.74l-63.53-140.62h-97.7v-12.73h101.81c2.5,0,4.77,1.46,5.8,3.74
			l58.64,129.79l81.47-235.41c0.89-2.56,3.3-4.28,6.01-4.28c0.01,0,0.02,0,0.04,0c2.73,0.02,5.14,1.76,6,4.35l33.94,101.81h118.3
			v12.73H329.46c-2.74,0-5.17-1.75-6.04-4.35l-29.47-88.39l-80.57,232.82c-0.85,2.46-3.12,4.16-5.72,4.28
			C207.56,401.42,207.47,401.42,207.37,401.42z"/>
	</g>
	<path class="st0" d="M489.12,243.61L375.09,46.11c-2.28-3.95-6.5-6.39-11.07-6.39H135.98c-4.57,0-8.79,2.44-11.07,6.39
		L10.88,243.61c-2.28,3.95-2.28,8.83,0,12.78l114.02,197.5c2.28,3.95,6.5,6.39,11.07,6.39h228.05c4.57,0,8.79-2.44,11.07-6.39
		l114.02-197.5C491.4,252.44,491.4,247.56,489.12,243.61z M445.37,256.39L353.22,416c-2.28,3.95-6.5,6.39-11.07,6.39h-184.3
		c-4.57,0-8.79-2.44-11.07-6.39L54.63,256.39c-2.28-3.95-2.28-8.83,0-12.78L146.78,84c2.28-3.95,6.5-6.39,11.07-6.39h184.3
		c4.57,0,8.79,2.44,11.07,6.39l92.15,159.61C447.66,247.56,447.66,252.44,445.37,256.39z"/>
</g>
</svg>
