<svg id="Layer_1" data-name="Layer 1" xmlns="http://www.w3.org/2000/svg" xmlns:xlink="http://www.w3.org/1999/xlink" viewBox="0 0 1920 723.05"><defs><style>.cls-1{fill:none;}.cls-2{clip-path:url(#clip-path);}.cls-10,.cls-11,.cls-12,.cls-13,.cls-14,.cls-15,.cls-16,.cls-17,.cls-18,.cls-19,.cls-20,.cls-21,.cls-22,.cls-23,.cls-24,.cls-25,.cls-26,.cls-27,.cls-28,.cls-29,.cls-3,.cls-30,.cls-31,.cls-32,.cls-33,.cls-34,.cls-35,.cls-36,.cls-37,.cls-38,.cls-39,.cls-4,.cls-40,.cls-41,.cls-42,.cls-43,.cls-44,.cls-45,.cls-46,.cls-47,.cls-48,.cls-49,.cls-5,.cls-50,.cls-51,.cls-52,.cls-53,.cls-54,.cls-55,.cls-56,.cls-57,.cls-58,.cls-59,.cls-6,.cls-7,.cls-8,.cls-9{fill:#fff;}.cls-3{opacity:0.92;}.cls-4{opacity:0.7;}.cls-5{opacity:0.82;}.cls-6{opacity:0.57;}.cls-7{opacity:0.88;}.cls-8{opacity:0.52;}.cls-9{opacity:0.67;}.cls-10{opacity:0.63;}.cls-11{opacity:0.52;}.cls-12{opacity:0.99;}.cls-13{opacity:0.65;}.cls-14{opacity:0.77;}.cls-15{opacity:0.81;}.cls-16{opacity:0.63;}.cls-17{opacity:0.58;}.cls-18{opacity:0.6;}.cls-19{opacity:0.92;}.cls-20{opacity:0.56;}.cls-21{opacity:0.83;}.cls-22{opacity:0.96;}.cls-23{opacity:0.73;}.cls-24{opacity:0.76;}.cls-25{opacity:0.89;}.cls-26{opacity:0.85;}.cls-27{opacity:0.99;}.cls-28{opacity:0.73;}.cls-29{opacity:0.99;}.cls-30{opacity:0.53;}.cls-31{opacity:0.99;}.cls-32{opacity:0.63;}.cls-33{opacity:0.81;}.cls-34{opacity:0.77;}.cls-35{opacity:0.54;}.cls-36{opacity:0.56;}.cls-37{opacity:0.85;}.cls-38{opacity:0.57;}.cls-39{opacity:0.68;}.cls-40{opacity:0.84;}.cls-41{opacity:0.91;}.cls-42{opacity:0.95;}.cls-43{opacity:0.55;}.cls-44{opacity:0.85;}.cls-45{opacity:0.62;}.cls-46{opacity:0.88;}.cls-47{opacity:0.58;}.cls-48{opacity:0.54;}.cls-49{opacity:0.95;}.cls-50{opacity:0.63;}.cls-51{opacity:0.67;}.cls-52{opacity:0.58;}.cls-53{opacity:0.52;}.cls-54{opacity:0.87;}.cls-55{opacity:0.94;}.cls-56{opacity:0.85;}.cls-57{opacity:0.89;}.cls-58{opacity:0.67;}.cls-59{opacity:0.78;}</style><clipPath id="clip-path"><rect class="cls-1" x="-1.55" width="1923.1" height="723.34"/></clipPath></defs><g class="cls-2"><path class="cls-3" d="M1534.46,351.42h-.39l-146,.46-74.56-127.08.18-.34,71.59-127.21.39,0,146-.46,74.56,127.07-.17.35Zm-145.6-.89,144.81-.46,71-126.19L1530.91,98.13l-144.81.46-71,126.19Z"/><path class="cls-4" d="M1497.36,288.2l-73.56.24-37.48-63.88.19-.31,35.9-63.79,73.56-.24,37.48,63.88-.17.35Zm-72.81-1.11,72-.24,35.33-62.76-36.69-62.53-72,.25-35.35,62.74Z"/><path class="cls-5" d="M1682.82,604.25l-.39,0-146,.47-74.57-127.08.18-.34,71.6-127.21.38,0,146-.46,74.57,127.07-.19.32Zm-145.62-.91L1682,602.9l71-126.21L1679.26,351l-144.8.46-71,126.19Z"/><polygon class="cls-6" points="1420.09 983.65 1322.98 983.97 1175.01 731.8 1317.45 478.76 1607.84 477.82 1755.81 729.99 1708.17 814.61 1710.48 813.25 1757.17 730.32 1757.37 729.96 1608.63 476.48 1317.07 477.41 1316.66 477.41 1173.65 731.47 1173.47 731.82 1322.21 985.31 1417.78 985.01 1420.09 983.65"/><path class="cls-7" d="M1540,858l-146.34.47-74.58-127.1.19-.31,71.6-127.21,146.36-.48,74.58,127.1-.21.33Zm-145.6-.88,144.81-.46,71-126.19-73.77-125.73-144.81.46-71,126.19Z"/><polygon class="cls-8" points="1745.59 792.65 1721.26 792.74 1684.56 730.21 1719.9 667.44 1791.92 667.21 1828.62 729.74 1816.67 750.95 1818.99 749.59 1830.15 729.73 1792.67 665.85 1719.11 666.09 1683.02 730.19 1720.5 794.07 1743.28 794.01 1745.59 792.65"/><path class="cls-9" d="M1571.54,414.62l-73.56.24L1460.5,351l.17-.35,35.9-63.78,73.58-.22,37.48,63.89-.19.31Zm-72.82-1.12,72-.23,35.33-62.77L1569.39,288l-72,.23L1462,351Z"/><path class="cls-10" d="M422.75,662.27l-37.16.13-18.95-32.29.22-.33,18-32,37.17-.13L441,629.88l-.2.32ZM386.35,661l35.61-.1,17.49-31L421.31,599l-35.64.11-17.46,31Z"/><path class="cls-11" d="M1410.17,636.77l-37.18.1-18.93-32.26.2-.35,18-32,37.17-.13,18.93,32.26-.18.34Zm-36.4-1.25,35.61-.1,17.48-31-18.15-30.94-35.63.12-17.46,31Z"/><path class="cls-12" d="M1899.82,476.91h-.41l-146,.46L1678.88,350.3l.17-.35,71.62-127.21h.39l146-.46,74.57,127.07-.19.32Zm-145.64-.9,144.85-.45,71-126.21-73.78-125.73-144.8.47-71.06,126.2Z"/><polygon class="cls-13" points="1890.2 707.8 1828.77 603.11 1899.82 476.91 2044.63 476.45 2106.06 581.14 2107.2 580.47 2045.37 475.09 1899.4 475.55 1899.03 475.56 1827.41 602.78 1827.22 603.1 1889.05 708.48 1890.2 707.8"/><path class="cls-14" d="M2116.8,349.59l-.38,0-146,.47L1895.88,223l.18-.34,71.6-127.21h.41L2114,95,2188.6,222l-.21.33Zm-145.61-.91,144.82-.44L2187,222,2113.25,96.3l-144.8.46-71,126.19Z"/><polygon class="cls-15" points="1854.1 728.99 1756.98 729.3 1609.01 477.13 1751.47 224.09 2041.86 223.15 2189.83 475.31 2142.18 559.94 2144.47 558.6 2191.18 475.65 2191.36 475.3 2042.62 221.82 1751.06 222.75 1750.67 222.74 1607.65 476.8 1607.46 477.16 1756.2 730.65 1851.78 730.34 1854.1 728.99"/><polygon class="cls-16" points="1673.21 835.12 1611.78 730.44 1682.82 604.25 1827.62 603.79 1889.05 708.48 1890.2 707.8 1828.36 602.43 1682.39 602.89 1682.03 602.9 1610.43 730.1 1610.24 730.42 1672.07 835.8 1673.21 835.12"/><path class="cls-17" d="M1775.54,762.26l-37.19.1-18.93-32.26,18.23-32.41,37.18-.1,18.93,32.26ZM1739.11,761l35.63-.12,17.49-31-18.16-30.94-35.63.12L1721,730.09Z"/><polygon class="cls-18" points="1673.21 835.12 1611.78 730.44 1682.82 604.25 1827.62 603.79 1889.05 708.48 1890.2 707.8 1828.36 602.43 1682.39 602.89 1682.03 602.9 1610.43 730.1 1610.24 730.42 1672.07 835.8 1673.21 835.12"/><path class="cls-19" d="M1695.83,129.27l-37.17.12-18.94-32.28.19-.32,18-32.06,37.14-.12L1714,96.9l-.19.31ZM1659.4,128l35.64-.12,17.46-31L1694.36,66l-35.61.11-17.49,31.05Z"/><path class="cls-20" d="M1899.82,476.91h-.41l-146,.46L1678.88,350.3l.17-.35,71.62-127.21h.39l146-.46,74.57,127.07-.19.32Zm-145.64-.9,144.85-.45,71-126.21-73.78-125.73-144.8.47-71.06,126.2Z"/><path class="cls-21" d="M2333.81,222.25h-.38l-291.57.91L1893.12-30.34l.18-.32,143-254.09h.38l291.56-.93L2477-32.18l-.17.34Zm-291.19-.43,290.4-.92L2475.46-32.17l-148-252.14-290.4.91L1894.66-30.33Z"/><path class="cls-22" d="M1912.81,2l-37.17.12L1856.7-30.21l.21-.33,18-32.06,37.17-.13,18.94,32.29-.19.32ZM1876.41.7,1912,.6l17.48-31.06-18.13-30.91-35.64.12-17.46,31Z"/><path class="cls-23" d="M429.29,657.55a8,8,0,1,1-11-2.94A8,8,0,0,1,429.29,657.55Z"/><path class="cls-24" d="M447.16,625.82a8,8,0,1,1-11.05-2.92A8.07,8.07,0,0,1,447.16,625.82Z"/><path class="cls-25" d="M1431.12,283.71a8,8,0,1,1-11-2.94A8.07,8.07,0,0,1,1431.12,283.71Z"/><path class="cls-26" d="M1503.89,283.48a8,8,0,1,1-11-2.94A8,8,0,0,1,1503.89,283.48Z"/><path class="cls-27" d="M1543.75,600a8,8,0,1,1-11-2.93A8.08,8.08,0,0,1,1543.75,600Z"/><path class="cls-28" d="M1763.51,725.91a8,8,0,1,1-11-2.93A8.07,8.07,0,0,1,1763.51,725.91Z"/><path class="cls-29" d="M1472.32,726.84a8,8,0,1,1-11-2.94A8,8,0,0,1,1472.32,726.84Z"/><path class="cls-30" d="M1613.78,346.43a8,8,0,1,1-11-2.9A8.08,8.08,0,0,1,1613.78,346.43Z"/><path class="cls-31" d="M1468.2,346.9a8,8,0,1,1-11-2.93A8.07,8.07,0,0,1,1468.2,346.9Z"/><path class="cls-32" d="M392.9,657.66a8,8,0,1,1-11-2.94A8.07,8.07,0,0,1,392.9,657.66Z"/><path class="cls-33" d="M1416,568.7a8,8,0,1,1-11-2.92A8.08,8.08,0,0,1,1416,568.7Z"/><path class="cls-34" d="M1760.75,472.64a8,8,0,1,1-11-2.94A8.05,8.05,0,0,1,1760.75,472.64Z"/><path class="cls-35" d="M1906.34,472.16a8,8,0,1,1-11-2.93A8.07,8.07,0,0,1,1906.34,472.16Z"/><path class="cls-36" d="M1903.58,218.89a8,8,0,1,1-11-2.92A8.07,8.07,0,0,1,1903.58,218.89Z"/><path class="cls-37" d="M1758,219.34a8,8,0,1,1-11-2.91A8.06,8.06,0,0,1,1758,219.34Z"/><path class="cls-38" d="M1763.51,725.91a8,8,0,1,1-11-2.93A8.07,8.07,0,0,1,1763.51,725.91Z"/><path class="cls-39" d="M1665.27,61.33a8,8,0,1,1-11-2.91A8.07,8.07,0,0,1,1665.27,61.33Z"/><path class="cls-40" d="M60.11,615.62l-73.56.23L-50.94,552l36.09-64.1,73.56-.24L96.2,551.51ZM-12.7,614.5l72-.23,35.32-62.76L58,489l-72,.22L-49.4,552Z"/><path class="cls-41" d="M97.2,678.82l-146.36.47-74.57-127.08,71.79-127.55,146.36-.46L169,551.28Zm-145.59-.88,144.8-.46,71-126.19L93.66,425.55l-144.8.46-71,126.19Z"/><path class="cls-42" d="M240,425.08h-.39L-51.93,426-200.68,172.52l.2-.33,143-254.08h.39l291.56-.92L383.23,170.67,383,171Zm-291.19-.42,290.4-.93L381.67,170.67l-148-252.14-290.4.92L-199.12,172.52Z"/><path class="cls-43" d="M277.11,488.29l-73.57.23-37.48-63.88,36.09-64.1,73.56-.24,37.48,63.88Zm-72.81-1.12,72-.23,35.32-62.76-36.7-62.53-72,.22-35.32,62.76Z"/><polygon class="cls-44" points="277.1 -461.55 302.36 -461.63 450.32 -209.47 307.88 43.59 17.48 44.51 -130.48 -207.64 -118.08 -229.66 -120.38 -228.31 -131.84 -207.97 -132.03 -207.64 16.73 45.86 308.29 44.94 308.67 44.94 451.68 -209.14 451.87 -209.48 303.12 -462.98 279.4 -462.9 277.1 -461.55"/><path class="cls-45" d="M91.67,172.27l-146.36.45L-129.26,45.65-57.47-81.89h.39l146-.46L163.46,44.71l-.18.35Zm-145.6-.9,144.81-.45,71-126.2L88.13-81l-144.81.46-71,126.19Z"/><path class="cls-46" d="M457,297.75h-.38l-291.56.92L16.33,45.19l.18-.33,143-254.08h.39l291.56-.92L600.22,43.34l-.19.34Zm-291.19-.42,290.39-.93L598.67,43.34,450.72-208.8l-290.4.92L17.87,45.19Z"/><path class="cls-47" d="M494.1,361l-73.56.23-37.49-63.88,36.09-64.1,73.57-.25,37.49,63.88Zm-72.8-1.12,72-.23,35.33-62.76L492,234.31l-72,.23L384.6,297.3Z"/><path class="cls-48" d="M240,425.08h-.39l-146,.46L19.09,298.46,90.88,170.92h.39l146-.46,74.57,127.09-.18.33Zm-145.6-.88,144.81-.47,71-126.18L236.48,171.81l-144.81.46-71,126.19Z"/><path class="cls-49" d="M308.67,44.94l-146.37.45L87.73-81.68l71.8-127.54h.39l146-.46L380.45-82.62l-.17.35ZM163.06,44l144.82-.45,71-126.21L305.14-208.35l-144.82.47-71,126.19Z"/><path class="cls-50" d="M891,43.09h-.39l-146,.46L670.08-83.53l71.8-127.55,146.35-.46L962.81-84.46l-.18.33Zm-145.6-.89,144.8-.46,71-126.2L887.49-210.2l-144.82.47-71,126.19Z"/><path class="cls-51" d="M457,297.75h-.38l-146,.47L236.08,171.13l71.8-127.54h.38l146-.46,74.58,127.09-.19.33Zm-145.6-.88,144.8-.47,71-126.19L453.48,44.47l-144.81.47-71,126.19Z"/><path class="cls-52" d="M102.35,547.45a8,8,0,1,1-11-2.92A8.08,8.08,0,0,1,102.35,547.45Z"/><path class="cls-53" d="M24,41.12A8,8,0,1,1,13,38.2,8,8,0,0,1,24,41.12Z"/><path class="cls-54" d="M500.64,356.22a8,8,0,1,1-11-2.92A8.08,8.08,0,0,1,500.64,356.22Z"/><path class="cls-55" d="M243.79,167.07a8,8,0,1,1-11-2.94A8.08,8.08,0,0,1,243.79,167.07Z"/><path class="cls-56" d="M98.2,167.53a8,8,0,1,1-11-2.92A8.07,8.07,0,0,1,98.2,167.53Z"/><path class="cls-57" d="M169.61,40.66a8,8,0,1,1-11-2.92A8.07,8.07,0,0,1,169.61,40.66Z"/><path class="cls-58" d="M463.55,293a8,8,0,1,1-11-2.91A8.07,8.07,0,0,1,463.55,293Z"/><path class="cls-59" d="M315.2,40.19a8,8,0,1,1-11-2.91A8.07,8.07,0,0,1,315.2,40.19Z"/></g></svg>