<svg id="Capa_1" data-name="Capa 1" xmlns="http://www.w3.org/2000/svg" xmlns:xlink="http://www.w3.org/1999/xlink" viewBox="0 0 926.11 678.05"><defs><style>.cls-1{fill:none;}.cls-2{clip-path:url(#clip-path);}.cls-3{clip-path:url(#clip-path-2);}.cls-10,.cls-11,.cls-12,.cls-13,.cls-14,.cls-15,.cls-16,.cls-17,.cls-18,.cls-19,.cls-20,.cls-21,.cls-22,.cls-23,.cls-24,.cls-25,.cls-26,.cls-27,.cls-4,.cls-5,.cls-6,.cls-7,.cls-8,.cls-9{fill:#69d2e7;isolation:isolate;}.cls-4{opacity:0.84;}.cls-5{opacity:0.91;}.cls-6{opacity:0.95;}.cls-7{opacity:0.55;}.cls-8{opacity:0.85;}.cls-9{opacity:0.62;}.cls-10{opacity:0.88;}.cls-11{opacity:0.58;}.cls-12{opacity:0.54;}.cls-13{opacity:0.95;}.cls-14{opacity:0.63;}.cls-15{opacity:0.67;}.cls-16{opacity:0.58;}.cls-17{opacity:0.52;}.cls-18{opacity:0.87;}.cls-19{opacity:0.94;}.cls-20{opacity:0.85;}.cls-21{opacity:0.89;}.cls-22{opacity:0.67;}.cls-23{opacity:0.78;}.cls-24{opacity:0.73;}.cls-25{opacity:0.76;}.cls-26{opacity:0.63;}.cls-27{opacity:0.63;}</style><clipPath id="clip-path"><rect class="cls-1" x="1171.02" y="-243.49" width="835.57" height="938.83"/></clipPath><clipPath id="clip-path-2"><rect class="cls-1" x="-1.55" width="927.66" height="678.05"/></clipPath></defs><g id="Layer_1-2" data-name="Layer 1"><g class="cls-3"><path class="cls-4" d="M60.11,615.62l-73.57.23L-50.95,552l36.09-64.1,73.56-.24,37.49,63.88ZM-12.7,614.5l72-.23,35.32-62.76L58,489l-72,.22L-49.38,552Z"/><path class="cls-5" d="M97.2,678.82l-146.36.47L-123.73,552.2l71.79-127.54,146.36-.47L169,551.28Zm-145.59-.88,144.81-.46,71-126.19L93.66,425.55-51.15,426l-71,126.19Z"/><path class="cls-6" d="M240,425.08h-.39L-51.93,426-200.67,172.52l.2-.34,143-254.07h.39l291.56-.92L383.22,170.67,383,171Zm-291.19-.42,290.4-.92L381.68,170.68l-148-252.15-290.4.92L-199.12,172.51Z"/><path class="cls-7" d="M277.11,488.29l-73.57.23-37.49-63.88,36.09-64.1,73.56-.24,37.49,63.88Zm-72.81-1.12,72-.23,35.32-62.76-36.69-62.53-72,.22-35.32,62.76Z"/><polygon class="cls-8" points="277.1 -461.54 302.36 -461.63 450.32 -209.47 307.88 43.59 17.48 44.51 -130.48 -207.64 -118.08 -229.66 -120.38 -228.31 -131.84 -207.97 -132.03 -207.64 16.73 45.86 308.29 44.94 308.67 44.94 451.68 -209.14 451.87 -209.48 303.12 -462.98 279.4 -462.9 277.1 -461.54"/><path class="cls-9" d="M91.67,172.27l-146.37.46L-129.27,45.65-57.48-81.89h.39l146-.46L163.45,44.72l-.18.34Zm-145.6-.9,144.81-.45,71-126.2L88.13-81l-144.81.46-71,126.19Z"/><path class="cls-10" d="M457,297.75h-.38l-291.56.92L16.33,45.19l.18-.33,143-254.08h.39l291.56-.92L600.22,43.34l-.19.35Zm-291.19-.42,290.4-.92L598.67,43.34,450.72-208.8l-290.4.92L17.87,45.19Z"/><path class="cls-11" d="M494.1,361l-73.57.23L383,297.31l36.09-64.1L492.7,233l37.49,63.88Zm-72.8-1.12,72-.23,35.33-62.76L492,234.32l-72,.23L384.6,297.3Z"/><path class="cls-12" d="M240,425.08h-.39l-146,.46L19.09,298.46,90.88,170.92h.39l146-.46,74.57,127.09-.18.33Zm-145.6-.88,144.81-.46,71-126.19L236.48,171.81l-144.81.46-71,126.19Z"/><path class="cls-13" d="M308.67,44.94l-146.37.45L87.73-81.68l71.79-127.54h.39l146-.46L380.45-82.61l-.18.34ZM163.06,44l144.81-.45,71-126.21L305.12-208.35l-144.82.47-71,126.19Z"/><path class="cls-14" d="M891,43.09h-.39l-146,.46L670.08-83.53l71.79-127.54,146.36-.47L962.8-84.45l-.18.33Zm-145.6-.89,144.8-.46,71-126.19L887.49-210.2l-144.82.47-71,126.19Z"/><path class="cls-15" d="M457,297.75h-.38l-146,.46L236.09,171.12,307.88,43.58h.39l146-.46L528.81,170.2l-.18.33Zm-145.6-.88,144.81-.46,71-126.19L453.48,44.47l-144.82.47-71,126.19Z"/><path class="cls-16" d="M102.35,547.45a8,8,0,1,1-11-2.93A8.06,8.06,0,0,1,102.35,547.45Z"/><path class="cls-17" d="M24,41.12A8,8,0,1,1,13,38.2,8,8,0,0,1,24,41.12Z"/><path class="cls-18" d="M500.64,356.22a8,8,0,1,1-11-2.92A8.08,8.08,0,0,1,500.64,356.22Z"/><path class="cls-19" d="M243.79,167.07a8,8,0,1,1-11-2.94A8.06,8.06,0,0,1,243.79,167.07Z"/><path class="cls-20" d="M98.2,167.53a8,8,0,1,1-11-2.92A8,8,0,0,1,98.2,167.53Z"/><path class="cls-21" d="M169.61,40.66a8,8,0,1,1-11-2.92A8.07,8.07,0,0,1,169.61,40.66Z"/><path class="cls-22" d="M463.55,293a8,8,0,1,1-11-2.91A8.07,8.07,0,0,1,463.55,293Z"/><path class="cls-23" d="M315.2,40.19a8,8,0,1,1-11-2.91A8.07,8.07,0,0,1,315.2,40.19Z"/><path class="cls-24" d="M429.29,657.54a8,8,0,1,1-11-2.93A8,8,0,0,1,429.29,657.54Z"/><path class="cls-25" d="M447.16,625.82a8,8,0,1,1-11.05-2.92A8.08,8.08,0,0,1,447.16,625.82Z"/><path class="cls-26" d="M392.9,657.66a8,8,0,1,1-11-2.94A8.06,8.06,0,0,1,392.9,657.66Z"/><path class="cls-27" d="M422.75,662.27l-37.17.13-18.94-32.29.22-.33,18-32.06,37.17-.13L441,629.88l-.19.32ZM386.35,661l35.61-.1,17.48-31L421.3,599l-35.63.12-17.46,31Z"/></g></g></svg>