<svg id="Capa_1" data-name="Capa 1" xmlns="http://www.w3.org/2000/svg" xmlns:xlink="http://www.w3.org/1999/xlink" viewBox="0 0 834.02 938.83"><defs><style>.cls-1,.cls-45{fill:none;}.cls-2{clip-path:url(#clip-path);}.cls-10,.cls-11,.cls-12,.cls-13,.cls-14,.cls-15,.cls-16,.cls-17,.cls-18,.cls-19,.cls-20,.cls-21,.cls-22,.cls-23,.cls-24,.cls-25,.cls-26,.cls-27,.cls-28,.cls-29,.cls-3,.cls-30,.cls-31,.cls-32,.cls-33,.cls-34,.cls-35,.cls-36,.cls-37,.cls-38,.cls-39,.cls-4,.cls-40,.cls-41,.cls-42,.cls-43,.cls-44,.cls-5,.cls-6,.cls-7,.cls-8,.cls-9{fill:#69d2e7;isolation:isolate;}.cls-3{opacity:0.9;}.cls-4{opacity:0.86;}.cls-5{opacity:0.92;}.cls-6{opacity:0.7;}.cls-7{opacity:0.82;}.cls-8{opacity:0.57;}.cls-9{opacity:0.87;}.cls-10{opacity:0.55;}.cls-11{opacity:0.88;}.cls-12{opacity:0.52;}.cls-13{opacity:0.67;}.cls-14{opacity:0.52;}.cls-15{opacity:0.99;}.cls-16{opacity:0.65;}.cls-17{opacity:0.77;}.cls-18{opacity:0.81;}.cls-19{opacity:0.63;}.cls-20{opacity:0.58;}.cls-21{opacity:0.6;}.cls-22{opacity:0.92;}.cls-23{opacity:0.56;}.cls-24{opacity:0.83;}.cls-25{opacity:0.69;}.cls-26{opacity:0.52;}.cls-27{opacity:0.78;}.cls-28{opacity:0.81;}.cls-29{opacity:0.89;}.cls-30{opacity:0.85;}.cls-31{opacity:0.99;}.cls-32{opacity:0.73;}.cls-33{opacity:0.99;}.cls-34{opacity:0.54;}.cls-35{opacity:0.53;}.cls-36{opacity:0.99;}.cls-37{opacity:0.81;}.cls-38{opacity:0.77;}.cls-39{opacity:0.54;}.cls-40{opacity:0.56;}.cls-41{opacity:0.85;}.cls-42{opacity:0.57;}.cls-43{opacity:0.98;}.cls-44{opacity:0.68;}.cls-45{stroke:#69d2e7;stroke-miterlimit:10;stroke-width:1.2px;opacity:0.6;}</style><clipPath id="clip-path"><rect class="cls-1" width="835.57" height="938.83"/></clipPath></defs><g id="Layer_1" data-name="Layer 1"><g class="cls-2"><path class="cls-3" d="M199.91,869.66l-73.57.22L88.87,806l.19-.35L125,741.89l73.57-.22L236,805.53l-.18.34Zm-72.8-1.12,72-.23,35.33-62.76L197.76,743l-72,.23L90.42,806Z"/><path class="cls-4" d="M237,932.85l-146.35.48L16.07,806.23l.2-.32,71.6-127.2,146.35-.48,74.58,127.1-.19.32ZM91.4,932l144.81-.46,71-126.2L233.47,679.58l-144.82.47-71,126.19Z"/><path class="cls-5" d="M448.48,299h-.39l-146,.46L227.55,172.35l.18-.34L299.33,44.8l.38,0,146-.46,74.57,127.07-.18.34Zm-145.6-.89,144.81-.46,71-126.19L444.93,45.68l-144.8.46-71,126.19Z"/><path class="cls-6" d="M411.38,235.75l-73.56.24-37.48-63.88.19-.32L336.43,108l73.56-.24,37.48,63.88-.18.34Zm-72.81-1.11,72-.23,35.33-62.76-36.69-62.53-72,.26-35.35,62.74Z"/><path class="cls-7" d="M596.84,551.8h-.39l-146,.46L375.91,425.18l.18-.34,71.6-127.2.38,0,146-.46,74.57,127.07-.19.32Zm-145.62-.91L596,550.45l71-126.21L593.28,298.52l-144.8.46-71,126.19Z"/><polygon class="cls-8" points="381.97 931.2 237 931.52 89.03 679.35 231.47 426.31 521.86 425.37 669.83 677.54 608.69 784.03 611.01 782.67 671.19 677.87 671.39 677.51 522.65 424.03 231.09 424.96 230.68 424.96 87.67 679.02 87.49 679.37 236.23 932.86 379.66 932.56 381.97 931.2"/><polygon class="cls-9" points="382.8 930.67 453.99 805.52 832.86 805.23 835.18 803.87 453.2 804.18 380.48 932.03 382.8 930.67"/><polygon class="cls-10" points="237.47 931.92 237.39 932.18 379.83 679.14 670.22 678.2 741.22 784.03 742.39 783.35 671 676.85 379.43 677.76 379.04 677.79 236.03 931.85 235.84 932.2 236.31 932.6 237.47 931.92"/><path class="cls-11" d="M454,805.52,307.65,806l-74.58-127.1.19-.31,71.6-127.2,146.36-.49L525.8,678l-.21.33Zm-145.6-.88,144.81-.46,71-126.19L450.45,552.26l-144.81.46-71,126.19Z"/><polygon class="cls-12" points="714.94 740.2 635.28 740.29 598.58 677.76 633.92 614.99 705.94 614.76 742.64 677.29 712.2 741.58 714.52 740.22 744.17 677.28 706.69 613.4 633.13 613.64 597.04 677.74 634.52 741.62 712.63 741.56 714.94 740.2"/><path class="cls-13" d="M485.56,362.17l-73.56.24-37.49-63.88.17-.34,35.9-63.78,73.57-.22,37.49,63.88-.19.32Zm-72.82-1.12,72-.23,35.33-62.76-36.69-62.53-72,.23-35.33,62.77Z"/><path class="cls-14" d="M324.19,584.32l-37.18.1-18.93-32.26.2-.36,18-32,37.17-.13,18.93,32.26-.18.34Zm-36.4-1.25,35.61-.1,17.48-31.05L322.73,521l-35.63.12-17.46,31Z"/><path class="cls-15" d="M813.84,424.46h-.41l-146,.46L592.89,297.85l.18-.34,71.62-127.22h.39l146-.46,74.57,127.07-.19.32Zm-145.64-.9,144.85-.45,71-126.22L810.3,171.17l-144.81.46-71,126.2Z"/><polygon class="cls-16" points="804.22 655.35 742.79 550.66 813.84 424.46 958.65 424 1020.08 528.69 1021.22 528.01 959.39 422.64 813.42 423.1 813.05 423.11 741.43 550.33 741.24 550.65 803.07 656.02 804.22 655.35"/><path class="cls-17" d="M1030.82,297.14l-.38,0-146,.46L809.9,170.51l.18-.34L881.68,43h.41l146-.46,74.57,127.07-.21.33Zm-145.61-.91L1030,295.8l71-126.22L1027.27,43.85l-144.81.46-71,126.19Z"/><polygon class="cls-18" points="794.31 676.54 671 676.85 523.03 424.68 665.49 171.64 955.88 170.7 1103.85 422.86 1056.2 507.49 1058.49 506.15 1105.2 423.2 1105.38 422.85 956.64 169.37 665.08 170.3 664.69 170.29 521.68 424.35 521.48 424.71 670.22 678.2 792 677.89 794.31 676.54"/><polygon class="cls-19" points="587.23 782.67 525.8 677.99 596.84 551.8 741.64 551.34 803.07 656.02 804.22 655.35 742.38 549.98 596.41 550.44 596.05 550.45 524.45 677.65 524.26 677.97 586.09 783.35 587.23 782.67"/><path class="cls-20" d="M689.56,709.81l-37.18.1-18.93-32.26,18.23-32.41,37.18-.1,18.93,32.26Zm-36.43-1.23,35.64-.12,17.48-31.05L688.1,646.47l-35.64.12L635,677.65Z"/><polygon class="cls-21" points="587.23 782.67 525.8 677.99 596.84 551.8 741.64 551.34 803.07 656.02 804.22 655.35 742.38 549.98 596.41 550.44 596.05 550.45 524.45 677.65 524.26 677.97 586.09 783.35 587.23 782.67"/><path class="cls-22" d="M609.85,76.82,572.68,77,553.74,44.66l.19-.31L572,12.28l37.14-.11,18.94,32.29-.19.32Zm-36.43-1.23,35.64-.12,17.46-31L608.38,13.52l-35.61.1L555.29,44.67Z"/><path class="cls-23" d="M813.84,424.46h-.41l-146,.46L592.89,297.85l.18-.34,71.62-127.22h.39l146-.46,74.57,127.07-.19.32Zm-145.64-.9,144.85-.45,71-126.22L810.3,171.17l-144.81.46-71,126.2Z"/><path class="cls-24" d="M1247.83,169.8l-.38,0-291.57.91L807.14-82.79l.19-.32,143-254.09h.39l291.55-.93L1391-84.63l-.18.34Zm-291.19-.43,290.4-.91L1389.48-84.62l-148-252.14-290.4.91L808.68-82.78Z"/><path class="cls-25" d="M242.14,801.48a8,8,0,1,1-11-2.91A8.06,8.06,0,0,1,242.14,801.48Z"/><path class="cls-26" d="M97.94,928.57a8,8,0,1,1-11-2.91A8.07,8.07,0,0,1,97.94,928.57Z"/><path class="cls-27" d="M240.77,674.85a8,8,0,1,1-11-2.93A8.06,8.06,0,0,1,240.77,674.85Z"/><path class="cls-28" d="M23.78,802.18a8,8,0,1,1-11-2.93A8.06,8.06,0,0,1,23.78,802.18Z"/><path class="cls-29" d="M345.14,231.26a8,8,0,1,1-11-2.94A8.06,8.06,0,0,1,345.14,231.26Z"/><path class="cls-30" d="M417.91,231a8,8,0,1,1-11-2.94A8,8,0,0,1,417.91,231Z"/><path class="cls-31" d="M457.77,547.52a8,8,0,1,1-11-2.93A8.06,8.06,0,0,1,457.77,547.52Z"/><path class="cls-32" d="M677.53,673.46a8,8,0,1,1-11-2.94A8.06,8.06,0,0,1,677.53,673.46Z"/><path class="cls-33" d="M386.34,674.39a8,8,0,1,1-11-2.94A8,8,0,0,1,386.34,674.39Z"/><path class="cls-34" d="M641.83,736.89a8,8,0,1,1-11-2.93A8.07,8.07,0,0,1,641.83,736.89Z"/><path class="cls-35" d="M527.8,294a8,8,0,1,1-11-2.9A8.07,8.07,0,0,1,527.8,294Z"/><path class="cls-36" d="M382.22,294.45a8,8,0,1,1-11-2.93A8.07,8.07,0,0,1,382.22,294.45Z"/><path class="cls-37" d="M330,516.25A8,8,0,1,1,319,513.33,8.07,8.07,0,0,1,330,516.25Z"/><path class="cls-38" d="M674.77,420.19a8,8,0,1,1-11-2.93A8.06,8.06,0,0,1,674.77,420.19Z"/><path class="cls-39" d="M820.36,419.71a8,8,0,1,1-11-2.93A8.07,8.07,0,0,1,820.36,419.71Z"/><path class="cls-40" d="M817.6,166.44a8,8,0,1,1-11.05-2.92A8.08,8.08,0,0,1,817.6,166.44Z"/><path class="cls-41" d="M672,166.89A8,8,0,1,1,661,164,8.07,8.07,0,0,1,672,166.89Z"/><path class="cls-42" d="M677.53,673.46a8,8,0,1,1-11-2.94A8.06,8.06,0,0,1,677.53,673.46Z"/><path class="cls-43" d="M659.68,705.18a8,8,0,1,1-11-2.94A8.06,8.06,0,0,1,659.68,705.18Z"/><path class="cls-44" d="M579.29,8.88a8,8,0,1,1-11-2.91A8.07,8.07,0,0,1,579.29,8.88Z"/></g><polyline class="cls-45" points="586.09 783.35 742.11 783.35 803.07 656.02"/></g></svg>