<svg id="Capa_1" data-name="Capa 1" xmlns="http://www.w3.org/2000/svg" xmlns:xlink="http://www.w3.org/1999/xlink" viewBox="0 0 600 600"><defs><style>.cls-1{fill:none;}.cls-2{clip-path:url(#clip-path);}.cls-3{fill:#d2eae9;}.cls-3,.cls-6{stroke:#284549;stroke-linecap:round;stroke-linejoin:round;stroke-width:14px;}.cls-4,.cls-5{fill:#284549;}.cls-5{fill-rule:evenodd;}.cls-6{fill:#f4991e;}</style><clipPath id="clip-path"><path class="cls-1" d="M503.48,368,436.3,342.26l-77.39,12.88-29.05,54.55-5.59,51.88,5.59,23,33.31,37.3L315,543.2l-225.58-25L-61.18,345.91s7.65-165.82,11-170.93S139.51,39.77,144.61,38.07s235.92-6,282.94-3.4S530.69,53.38,540.9,55.93s39.74,177.73,39.74,177.73l23.19,94.4Z"/></clipPath></defs><g class="cls-2"><circle class="cls-3" cx="297.48" cy="300" r="218.21"/></g><path class="cls-4" d="M297.48,584.25a9.24,9.24,0,0,0,0-18.48A264.68,264.68,0,1,1,562.15,301.09q0,9.9-.7,19.44t-2.14,19.3a9.23,9.23,0,1,0,18.27,2.67q1.51-10.25,2.28-20.67t.78-20.74A283.17,283.17,0,1,0,297.48,584.25Z"/><path class="cls-4" d="M306.72,77.08a9.25,9.25,0,0,0-18.49,0V323.85a9.25,9.25,0,0,0,18.49,0Z"/><path class="cls-4" d="M98.69,291.85a9.25,9.25,0,0,0,0,18.49H315a9.25,9.25,0,0,0,0-18.49Z"/><path class="cls-5" d="M297.48,318.64a17.55,17.55,0,1,0-17.55-17.55A17.59,17.59,0,0,0,297.48,318.64Z"/><path class="cls-6" d="M547.8,441.47c0-1.16,0-2.31,0-3.45a9.27,9.27,0,0,1,6.9-9.3l7.78-2a9.25,9.25,0,0,0,6.61-11.3L562.93,392a9.26,9.26,0,0,0-11.3-6.61l-8.45,2.2a9.23,9.23,0,0,1-10.42-4.44,120,120,0,0,0-11.89-17.55,9.27,9.27,0,0,1-.15-11.5l5.49-7.1a9.28,9.28,0,0,0-1.67-13l-19.1-14.73a9.26,9.26,0,0,0-13,1.67l-5.75,7.45a9.26,9.26,0,0,1-11,2.83A119.66,119.66,0,0,0,456,324.62a9.26,9.26,0,0,1-7.08-9v-9.52a9.26,9.26,0,0,0-9.26-9.27H415.48a9.27,9.27,0,0,0-9.26,9.27v9.51a9.25,9.25,0,0,1-7.11,9A120.51,120.51,0,0,0,381,330.55a9.27,9.27,0,0,1-11-3L364.39,320a9.28,9.28,0,0,0-13-1.86l-19.31,14.47a9.25,9.25,0,0,0-1.86,13l5.4,7.21a9.27,9.27,0,0,1-.33,11.51q-3.63,4.34-6.86,9a9.24,9.24,0,0,1-10.81,3.43l-8.32-3.06a9.25,9.25,0,0,0-11.89,5.49l-8.34,22.64a9.26,9.26,0,0,0,5.49,11.89l7.68,2.83a9.26,9.26,0,0,1,6,9.89,120.37,120.37,0,0,0-1,15c0,.22,0,.44,0,.65a9.27,9.27,0,0,1-6.92,9.07l-7.69,2a9.26,9.26,0,0,0-6.61,11.31l6.11,23.34a9.25,9.25,0,0,0,11.3,6.61l7-1.83a9.29,9.29,0,0,1,10.57,4.7,120.85,120.85,0,0,0,12,18.52,9.28,9.28,0,0,1,.09,11.43l-4.29,5.57a9.25,9.25,0,0,0,1.67,13l19.1,14.75a9.25,9.25,0,0,0,13-1.67l4-5.19A9.27,9.27,0,0,1,377.87,551a120.49,120.49,0,0,0,21.22,7.3,9.28,9.28,0,0,1,7.13,9v6.49a9.27,9.27,0,0,0,9.26,9.26h24.13a9.26,9.26,0,0,0,9.26-9.26v-6.49a9.25,9.25,0,0,1,7.08-9,118.79,118.79,0,0,0,19.7-6.63,9.26,9.26,0,0,1,11.12,2.93l3.93,5.25a9.26,9.26,0,0,0,13,1.86L523,547.25a9.26,9.26,0,0,0,1.86-13l-4.2-5.61a9.25,9.25,0,0,1,.22-11.37,120.8,120.8,0,0,0,7.27-10,9.26,9.26,0,0,1,10.94-3.62l6.7,2.48a9.28,9.28,0,0,0,11.9-5.5L566,478.07a9.25,9.25,0,0,0-5.5-11.89l-7.33-2.7a9.26,9.26,0,0,1-6-9.67A119.79,119.79,0,0,0,547.8,441.47ZM427.55,521.83a81.89,81.89,0,1,1,81.89-81.89A81.89,81.89,0,0,1,427.55,521.83Z"/></svg>