<svg id="Capa_1" data-name="Capa 1" xmlns="http://www.w3.org/2000/svg" viewBox="0 0 300 300"><defs><style>.cls-1{fill:#fff;}.cls-2{fill:#f4991c;}</style></defs><rect class="cls-1" x="4.44" y="4.31" width="291.06" height="291.06" rx="145.53"/><path class="cls-2" d="M299.72,152.48A149.53,149.53,0,1,0,101.54,293.9c3.58-2.58,7.7-5.77,7.7-11.14,0-8.22-.18-29.37-.18-29.37a104.17,104.17,0,0,1-15.75,1.1c-23.34,0-30.72-14.81-34.23-23.1-4.57-10.8-10.5-15.87-16.8-19.92-3.87-2.49-4.75-5.42-.28-6.26,20.66-3.87,25.94,23.3,39.74,27.63,9.85,3.09,22.51,1.75,28.81-2.3.83-8.3,6.84-15.47,11.85-19.25-35.09-3.36-55.9-15.48-66.68-35l-1.16-2.18L51.85,168l-.8-2.22c-3.38-9.89-4.88-21.21-4.88-33.87,0-22.46,7-30.93,16.49-42.9-7.23-25.61,2.59-43.11,2.59-43.11s15.19-3.13,43.9,17.31c15.56-6.63,57.06-7.18,76.69-1.47,12-7.92,34.08-19.16,43-16,2.4,3.85,7.59,15.09,3.14,39.78,3,5.41,18.71,16.94,18.77,49.55-.25,12-1.51,22.18-3.84,30.77l-1.3,4.39s-.74,2.07-1.55,4l-.95,2.18c-10.41,22.74-31.76,31.23-66.27,34.76,11.18,7,14.39,15.79,14.39,39.55s-.32,27-.24,32.42c.06,4.83,3.93,8.31,7.4,10.94A149.58,149.58,0,0,0,299.72,152.48Z"/></svg>