<svg id="Capa_1" data-name="Capa 1" xmlns="http://www.w3.org/2000/svg" viewBox="0 0 600 600"><defs><style>.cls-1{fill:#f4991c;}.cls-2{fill:#d2eae9;}.cls-3{fill:#fff;}.cls-4{fill:#284549;}</style></defs><path class="cls-1" d="M304.48,1.09,246.19,59.36h37.09v97.21H325c0-16.44,0-25.24.23-42.39h.42V59.36h37.09Z"/><path class="cls-2" d="M324.09,161.3a128.89,128.89,0,0,1,66.43,86.43l.27-.16C406.17,228.8,429,216.84,455,216.84c46.27,0,83.78,37.8,83.78,84.41a84.48,84.48,0,0,1-11.1,42l.11,1.5A48,48,0,0,1,539,343.47a50.74,50.74,0,0,1,0,101.47H447V434.28a7.11,7.11,0,0,0-7.12-7.11H420.76a116.71,116.71,0,0,0-6.67-24.83l16.58-9.57a7.14,7.14,0,0,0,2.61-9.73L422.6,364.56a7.1,7.1,0,0,0-9.71-2.6l-16.61,9.58a118.25,118.25,0,0,0-18.17-18.17l9.58-16.6A7.13,7.13,0,0,0,385.1,327l-18.5-10.66a7.11,7.11,0,0,0-9.72,2.6l-9.58,16.58a116.39,116.39,0,0,0-24.83-6.67V309.76a7.1,7.1,0,0,0-7.11-7.12H294a7.11,7.11,0,0,0-7.11,7.12v19.13a116.39,116.39,0,0,0-24.83,6.67L252.49,319a7.11,7.11,0,0,0-9.72-2.6L224.29,327a7.13,7.13,0,0,0-2.61,9.73l9.58,16.6a118.25,118.25,0,0,0-18.17,18.17L196.49,362a7.1,7.1,0,0,0-9.71,2.6L176.09,383a7.14,7.14,0,0,0,2.62,9.73l16.58,9.57a116.14,116.14,0,0,0-6.68,24.83H169.48a7.11,7.11,0,0,0-7.11,7.11v10.66H107.1c-48.07,0-87-39.25-87-87.7s39-87.7,87.05-87.7a86.15,86.15,0,0,1,30.43,5.52l.17-.37C138.33,204,195.37,147,265.63,147a127.38,127.38,0,0,1,19.65,1.6Z"/><path class="cls-1" d="M126.79,53.59,73.43,107l53.36,53.37v-34H177V183a127.94,127.94,0,0,1,38.82-25.92V87.56h-89Z"/><path class="cls-1" d="M536,107,482.67,53.59v34h-89V244.4a82.94,82.94,0,0,1,38.82-24.3V126.37h50.18v34Z"/><circle class="cls-3" cx="304.69" cy="444.96" r="66.71" transform="translate(-13.94 9.87) rotate(-1.82)"/><path class="cls-4" d="M260.76,206.2c1.58-.1,3.18-.15,4.78-.15a68.82,68.82,0,0,1,68.52,61.22,6.68,6.68,0,0,0,6.62,5.94,6.3,6.3,0,0,0,.75,0,6.68,6.68,0,0,0,5.89-7.37,82.14,82.14,0,0,0-81.78-73.08c-1.9,0-3.78.07-5.64.18a6.67,6.67,0,0,0,.86,13.31Z"/><path class="cls-4" d="M206,235.05a6.67,6.67,0,0,0,5.26-2.55,68.9,68.9,0,0,1,21-17.88A6.67,6.67,0,1,0,225.76,203a82.28,82.28,0,0,0-25,21.32A6.67,6.67,0,0,0,206,235.05Z"/><path class="cls-4" d="M439.89,469.42a13.79,13.79,0,0,0,13.78-13.78v-4H539c31.46,0,57-25.75,57-57.41s-25.57-57.4-57-57.4h-.62A91.35,91.35,0,0,0,515.9,234.07V193.69H565v17.65L589.32,187,565,162.71v17.64H509.23a6.68,6.68,0,0,0-6.67,6.68V223.9a89.08,89.08,0,0,0-108.7,10.63c-17.61-55.27-69.73-94.24-128.23-94.24-70.71,0-129.24,55.68-134.25,125.78a93,93,0,0,0-24.28-3.19h-.29V187a6.68,6.68,0,0,0-6.67-6.68H44.36V162.71L20.05,187l24.31,24.31V193.69H93.47V264a94.22,94.22,0,0,0-80.09,93.25c0,52.05,42,94.38,93.72,94.38h48.6v4a13.8,13.8,0,0,0,13.79,13.78H183a120.32,120.32,0,0,0,4.08,15.18l-11.75,6.78a13.81,13.81,0,0,0-5,18.83L181,528.7a13.79,13.79,0,0,0,18.83,5L211.6,527a123.59,123.59,0,0,0,11.09,11.1l-6.79,11.76a13.81,13.81,0,0,0,5,18.84l18.49,10.66a13.78,13.78,0,0,0,18.83-5l6.78-11.73a126.12,126.12,0,0,0,15.18,4.08v13.53A13.8,13.8,0,0,0,294,594h21.35a13.8,13.8,0,0,0,13.78-13.79V566.63a126.27,126.27,0,0,0,15.19-4.08l6.77,11.73a13.8,13.8,0,0,0,18.84,5l18.48-10.66a13.79,13.79,0,0,0,5.05-18.84l-6.79-11.76a125,125,0,0,0,11.1-11.1l11.76,6.79a13.8,13.8,0,0,0,18.83-5l10.69-18.49A13.8,13.8,0,0,0,434,491.38l-11.74-6.78a124.63,124.63,0,0,0,4.08-15.18ZM155.7,434.28v4H107.1c-44.32,0-80.38-36.36-80.38-81s36.06-81,80.38-81a79.53,79.53,0,0,1,28.08,5.08,81.17,81.17,0,0,1,39.75,32.45,6.67,6.67,0,0,0,11.28-7.14,94.82,94.82,0,0,0-41.61-35.8c2.65-64.95,56.07-117.17,121-117.17,56.37,0,106.14,40.17,118.37,95.53a123.43,123.43,0,0,1,2.9,26.69c0,1.76,0,3.49-.11,5.23a6.67,6.67,0,0,0,6.4,6.93h.28a6.67,6.67,0,0,0,6.66-6.41q.12-2.87.12-5.76A136.79,136.79,0,0,0,397.63,250,76.07,76.07,0,0,1,455,223.52c42.52,0,77.12,34.88,77.12,77.73A78.12,78.12,0,0,1,521.93,340a0,0,0,0,1,0,0A77.81,77.81,0,0,1,508,357.75a6.67,6.67,0,0,0,9.21,9.65,91,91,0,0,0,13.28-16.33c27.32-5.6,52.15,15.95,52.15,43.14A43.93,43.93,0,0,1,539,438.28H453.67v-4a13.79,13.79,0,0,0-13.78-13.78H426.35a122.84,122.84,0,0,0-4.08-15.18L434,398.55a13.82,13.82,0,0,0,5-18.84l-10.67-18.48a13.82,13.82,0,0,0-18.84-5.05L397.78,363a123.7,123.7,0,0,0-11.1-11.1l6.79-11.77a13.78,13.78,0,0,0-5.05-18.83L369.93,310.6a13.77,13.77,0,0,0-18.83,5l-6.77,11.73a125.32,125.32,0,0,0-15.19-4.09V309.75A13.8,13.8,0,0,0,315.36,296H294a13.8,13.8,0,0,0-13.78,13.79v13.54a124.19,124.19,0,0,0-15.18,4.09l-6.78-11.73a13.79,13.79,0,0,0-18.83-5L221,321.27a13.8,13.8,0,0,0-5,18.83l6.79,11.77a123.7,123.7,0,0,0-11.1,11.1l-11.76-6.79A13.81,13.81,0,0,0,181,361.23l-10.68,18.48a13.83,13.83,0,0,0,5,18.84l11.74,6.77A122,122,0,0,0,183,420.5H169.49A13.8,13.8,0,0,0,155.7,434.28Zm255.05,59.08,16.75,10.18-11.29,18.65-16.6-9.58a6.66,6.66,0,0,0-8.54,1.6,111.12,111.12,0,0,1-17.14,17.14,6.69,6.69,0,0,0-1.6,8.54l9.42,17.21-19.09,10.51L353.08,551a6.67,6.67,0,0,0-8.19-2.88,110.37,110.37,0,0,1-23.42,6.29,6.67,6.67,0,0,0-5.66,6.6l-.45,19.56-21.8-.44V561a6.66,6.66,0,0,0-5.67-6.6,110.2,110.2,0,0,1-23.4-6.29,6.89,6.89,0,0,0-2.43-.46,6.67,6.67,0,0,0-5.77,3.34l-10.18,16.75L227.46,556.5,237,539.89a6.68,6.68,0,0,0-1.6-8.54,111.12,111.12,0,0,1-17.14-17.14,6.65,6.65,0,0,0-8.54-1.6L192.55,522,182,502.93l16.59-9.57a6.67,6.67,0,0,0,2.88-8.2,110.4,110.4,0,0,1-6.29-23.41,6.65,6.65,0,0,0-6.59-5.68L169,455.64l.46-21.8h19.13a6.65,6.65,0,0,0,6.59-5.67,110.15,110.15,0,0,1,6.29-23.4,6.69,6.69,0,0,0-2.88-8.21l-16.75-10.18,11.29-18.65,16.6,9.59a6.64,6.64,0,0,0,8.54-1.61,110.68,110.68,0,0,1,17.14-17.14A6.68,6.68,0,0,0,237,350l-9.42-17.21,19.09-10.5,9.58,16.58a6.68,6.68,0,0,0,8.2,2.88,110.3,110.3,0,0,1,23.4-6.3,6.65,6.65,0,0,0,5.67-6.59l.45-19.58,21.8.44v19.14a6.66,6.66,0,0,0,5.66,6.59,110.39,110.39,0,0,1,23.41,6.3,6.66,6.66,0,0,0,8.2-2.88l10.18-16.75,18.65,11.29L372.33,350a6.69,6.69,0,0,0,1.6,8.54,110.68,110.68,0,0,1,17.14,17.14,6.64,6.64,0,0,0,8.54,1.61l17.21-9.43L427.33,387l-16.58,9.56a6.69,6.69,0,0,0-2.88,8.21,110.14,110.14,0,0,1,6.3,23.4,6.66,6.66,0,0,0,6.59,5.67h19.13l.45.44-.45,21.79H420.76a6.66,6.66,0,0,0-6.59,5.68,110.39,110.39,0,0,1-6.3,23.41A6.68,6.68,0,0,0,410.75,493.36Z"/><path class="cls-4" d="M304.69,371.57A73.39,73.39,0,1,0,378.07,445,73.48,73.48,0,0,0,304.69,371.57Zm0,133.43a60,60,0,1,1,60-60A60.11,60.11,0,0,1,304.69,505Z"/></svg>