<svg id="Capa_1" data-name="Capa 1" xmlns="http://www.w3.org/2000/svg" viewBox="0 0 600 600"><defs><style>.cls-1{fill:#f4991c;}.cls-2{fill:#d2eae9;}.cls-3{fill:#284549;}.cls-4,.cls-5{fill:none;stroke:#284549;stroke-linecap:round;stroke-linejoin:round;}.cls-4{stroke-width:10.13px;}.cls-5{stroke-width:9.44px;}</style></defs><polygon class="cls-1" points="493.99 122.53 449.88 122.53 449.88 272.48 291.08 272.48 194.09 316.58 194.09 272.48 149.98 272.48 149.98 122.53 105.88 122.53 105.88 351.87 493.99 351.87 493.99 122.53"/><path class="cls-2" d="M17.67,501.81v44.11a17.64,17.64,0,0,0,17.64,17.64H564.55a17.64,17.64,0,0,0,17.64-17.64V501.81Z"/><polygon class="cls-2" points="17.67 501.81 582.19 501.81 529.27 387.15 70.6 387.15 17.67 501.81"/><path class="cls-3" d="M150,279.1h37.49v37.48a6.62,6.62,0,0,0,6.62,6.62,6.5,6.5,0,0,0,2.73-.6l95.69-43.5H449.89a6.62,6.62,0,0,0,6.61-6.63V34.32a6.61,6.61,0,0,0-6.61-6.62H150a6.62,6.62,0,0,0-6.62,6.62V272.47A6.63,6.63,0,0,0,150,279.1ZM156.6,40.93H443.27V265.86H291.08a6.63,6.63,0,0,0-2.74.6L200.7,306.31V272.47a6.61,6.61,0,0,0-6.61-6.61H156.6Z"/><path class="cls-3" d="M535.89,385.7V104.89a24.28,24.28,0,0,0-24.26-24.25H485.17a6.62,6.62,0,1,0,0,13.23h26.46a11,11,0,0,1,11,11V380.53H77.21V104.89a11,11,0,0,1,11-11H114.7a6.62,6.62,0,0,0,0-13.23H88.24A24.28,24.28,0,0,0,64,104.89V385.7L11.67,499a6.71,6.71,0,0,0-.62,2.78v44.11a24.28,24.28,0,0,0,24.26,24.25H564.56a24.28,24.28,0,0,0,24.25-24.25V501.81a6.54,6.54,0,0,0-.61-2.78ZM74.83,393.76H525.05l46.81,101.43H28ZM575.58,545.92a11,11,0,0,1-11,11H35.31a11,11,0,0,1-11-11v-37.5H575.58Z"/><path class="cls-3" d="M255.85,457a6.62,6.62,0,0,0,0,13.23,6.62,6.62,0,1,0,0-13.23Z"/><path class="cls-3" d="M123.54,457a6.62,6.62,0,0,0,0,13.23,6.62,6.62,0,1,0,0-13.23Z"/><path class="cls-3" d="M211.76,457a6.62,6.62,0,1,0,0,13.23,6.62,6.62,0,0,0,0-13.23Z"/><path class="cls-3" d="M167.65,457a6.62,6.62,0,1,0,0,13.23,6.62,6.62,0,0,0,0-13.23Z"/><path class="cls-3" d="M344.06,457a6.62,6.62,0,0,0,0,13.23,6.62,6.62,0,1,0,0-13.23Z"/><path class="cls-3" d="M79.44,457a6.62,6.62,0,0,0,0,13.23,6.62,6.62,0,1,0,0-13.23Z"/><path class="cls-3" d="M300,457a6.62,6.62,0,0,0,0,13.23A6.62,6.62,0,1,0,300,457Z"/><path class="cls-3" d="M520.48,457a6.62,6.62,0,1,0,0,13.23,6.62,6.62,0,0,0,0-13.23Z"/><path class="cls-3" d="M476.37,457A6.62,6.62,0,1,0,483,463.6,6.63,6.63,0,0,0,476.37,457Z"/><path class="cls-3" d="M432.27,457a6.62,6.62,0,0,0,0,13.23,6.62,6.62,0,1,0,0-13.23Z"/><path class="cls-3" d="M388.17,457a6.62,6.62,0,1,0,0,13.23,6.62,6.62,0,0,0,0-13.23Z"/><path class="cls-3" d="M97.87,418.71a6.66,6.66,0,0,0,0,13.31,6.66,6.66,0,0,0,0-13.31Z"/><path class="cls-3" d="M277.47,418.71a6.66,6.66,0,1,0,6.61,6.61A6.6,6.6,0,0,0,277.47,418.71Z"/><path class="cls-3" d="M322.37,418.71a6.66,6.66,0,1,0,6.61,6.61A6.66,6.66,0,0,0,322.37,418.71Z"/><path class="cls-3" d="M142.77,418.71a6.66,6.66,0,1,0,6.61,6.61A6.6,6.6,0,0,0,142.77,418.71Z"/><path class="cls-3" d="M457.05,418.71a6.66,6.66,0,1,0,6.62,6.61A6.66,6.66,0,0,0,457.05,418.71Z"/><path class="cls-3" d="M502,418.71a6.66,6.66,0,1,0,6.71,6.61A6.66,6.66,0,0,0,502,418.71Z"/><path class="cls-3" d="M412.16,418.71a6.66,6.66,0,1,0,6.61,6.61A6.66,6.66,0,0,0,412.16,418.71Z"/><path class="cls-3" d="M187.67,418.71a6.66,6.66,0,1,0,6.61,6.61A6.61,6.61,0,0,0,187.67,418.71Z"/><path class="cls-3" d="M232.56,418.71a6.66,6.66,0,0,0,0,13.31,6.66,6.66,0,0,0,0-13.31Z"/><path class="cls-3" d="M367.26,418.71a6.66,6.66,0,1,0,6.62,6.61A6.66,6.66,0,0,0,367.26,418.71Z"/><path class="cls-3" d="M273.47,539.3H326.4a6.62,6.62,0,0,0,0-13.24H273.47a6.62,6.62,0,0,0,0,13.24Z"/><polyline class="cls-4" points="241.89 108.07 199.44 150.52 239.82 190.9"/><polyline class="cls-4" points="368.43 108.07 410.89 150.52 370.51 190.9"/><line class="cls-5" x1="323.55" y1="102.83" x2="284.63" y2="196.13"/></svg>