<svg id="Capa_1" data-name="Capa 1" xmlns="http://www.w3.org/2000/svg" viewBox="0 0 300 300"><defs><style>.cls-1{fill:#f4991c;}.cls-2{fill:#fff;}</style></defs><path class="cls-1" d="M151.6,3.27h0A146.74,146.74,0,0,1,298.35,150v0A146.75,146.75,0,0,1,151.6,296.76h0A146.74,146.74,0,0,1,4.86,150v0A146.75,146.75,0,0,1,151.6,3.27Z"/><path class="cls-2" d="M90.06,122.69h28.42V214H90.06Zm14.22-45.37A16.46,16.46,0,1,1,87.8,93.76a16.45,16.45,0,0,1,16.48-16.44"/><path class="cls-2" d="M136.29,122.69h27.22v12.48h.37c3.8-7.18,13.06-14.74,26.88-14.74,28.73,0,34,18.89,34,43.48V214H196.43V169.6c0-10.6-.21-24.21-14.75-24.21-14.77,0-17,11.53-17,23.43V214H136.29Z"/></svg>